SplineFontDB: 3.2
FontName: Untitled
FullName: Untitled
FamilyName: Untitled
Weight: Regular
ItalicAngle: 0
UnderlinePosition: 0
UnderlineWidth: 0
Ascent: 1638
Descent: 410
InvalidEm: 1
LayerCount: 2
Layer: 0 0 "Back" 1
Layer: 1 0 "Fore" 0
StyleMap: 0x0000
FSType: 0
OS2Version: 0
OS2_WeightWidthSlopeOnly: 0
OS2_UseTypoMetrics: 0
CreationTime: 1771481616
ModificationTime: 1771998573
PfmFamily: 16
TTFWeight: 400
TTFWidth: 5
LineGap: 0
VLineGap: 0
OS2TypoAscent: 0
OS2TypoAOffset: 1
OS2TypoDescent: 0
OS2TypoDOffset: 1
OS2TypoLinegap: 0
OS2WinAscent: 0
OS2WinAOffset: 1
OS2WinDescent: 0
OS2WinDOffset: 1
HheadAscent: 0
HheadAOffset: 1
HheadDescent: 0
HheadDOffset: 1
OS2Vendor: 'PfEd'
DEI: 91125
Encoding: Custom
UnicodeInterp: none
NameList: AGL For New Fonts
DisplaySize: -48
AntiAlias: 0
FitToEm: 0
WinInfo: 0 34 12
Grid
-640 -640 m 1
 -640 -603 l 1025
-640 -603 m 1
 -640 -549 l 1025
-640 -549 m 1
 -640 -512 l 1025
-640 -512 m 1
 -603 -512 l 1025
-603 -512 m 1
 -549 -512 l 1025
-549 -512 m 1
 -512 -512 l 1025
-512 -512 m 1
 -512 -549 l 1025
-512 -549 m 1
 -512 -603 l 1025
-512 -603 m 1
 -512 -640 l 1025
-512 -640 m 1
 -549 -640 l 1025
-549 -640 m 1
 -603 -640 l 1025
-603 -640 m 1
 -640 -640 l 1025
-603 -640 m 1
 -640 -603 l 1025
-640 -603 m 1
 -613 -576 l 1025
-613 -576 m 1
 -640 -549 l 1025
-640 -549 m 1
 -603 -512 l 1025
-603 -512 m 1
 -576 -539 l 1025
-576 -539 m 1
 -549 -512 l 1025
-549 -512 m 1
 -512 -549 l 1025
-512 -549 m 1
 -539 -576 l 1025
-539 -576 m 1
 -512 -603 l 1025
-512 -603 m 1
 -549 -640 l 1025
-549 -640 m 1
 -576 -613 l 1025
-576 -613 m 1
 -603 -640 l 1025
-613 -576 m 1
 -576 -539 l 1025
-576 -539 m 1
 -539 -576 l 1025
-539 -576 m 1
 -576 -613 l 1025
-576 -613 m 1
 -613 -576 l 1025
-640 -512 m 1
 -640 -475 l 1025
-640 -475 m 1
 -640 -421 l 1025
-640 -421 m 1
 -640 -384 l 1025
-640 -384 m 1
 -603 -384 l 1025
-603 -384 m 1
 -549 -384 l 1025
-549 -384 m 1
 -512 -384 l 1025
-512 -384 m 1
 -512 -421 l 1025
-512 -421 m 1
 -512 -475 l 1025
-512 -475 m 1

StartChar: char33
Encoding: 1 33 0
GlifName: char33
Width: 768
Flags: HW
LayerCount: 2
Back
SplineSet
256 0 m 1
 256 128 l 1
 384 128 l 1
 384 0 l 1
 256 0 l 1
384 1152 m 1
 384 256 l 1
 256 256 l 1
 256 1152 l 1
 384 1152 l 1
EndSplineSet
Fore
SplineSet
256 0 m 1
 256 128 l 1
 384 128 l 1
 384 0 l 1
 256 0 l 1
256 256 m 1
 256 1152 l 1
 384 1152 l 1
 384 256 l 1
 256 256 l 1
EndSplineSet
EndChar

StartChar: char34
Encoding: 2 34 1
GlifName: char34
Width: 768
Flags: HW
LayerCount: 2
Back
SplineSet
512 1152 m 1
 512 768 l 1
 384 768 l 1
 384 1152 l 1
 512 1152 l 1
256 1152 m 1
 256 768 l 1
 128 768 l 1
 128 1152 l 1
 256 1152 l 1
EndSplineSet
Fore
SplineSet
128 768 m 1
 128 1152 l 1
 256 1152 l 1
 256 768 l 1
 128 768 l 1
384 768 m 1
 384 1152 l 1
 512 1152 l 1
 512 768 l 1
 384 768 l 1
EndSplineSet
EndChar

StartChar: char35
Encoding: 3 35 2
GlifName: char35
Width: 768
Flags: HW
LayerCount: 2
Back
SplineSet
0 640 m 1
 0 768 l 1
 128 768 l 1
 128 896 l 1
 256 896 l 1
 256 768 l 1
 384 768 l 1
 384 896 l 1
 512 896 l 1
 512 768 l 1
 640 768 l 1
 640 640 l 1
 512 640 l 1
 512 512 l 1
 640 512 l 1
 640 384 l 1
 512 384 l 1
 512 256 l 1
 384 256 l 1
 384 384 l 1
 256 384 l 1
 256 256 l 1
 128 256 l 1
 128 384 l 1
 0 384 l 1
 0 512 l 1
 128 512 l 1
 128 640 l 1
 0 640 l 1
384 640 m 1
 256 640 l 1
 256 512 l 1
 384 512 l 1
 384 640 l 1
EndSplineSet
Fore
SplineSet
128 256 m 1
 128 384 l 1
 0 384 l 1
 0 512 l 1
 128 512 l 1
 128 640 l 1
 0 640 l 1
 0 768 l 1
 128 768 l 1
 128 896 l 1
 256 896 l 1
 256 768 l 1
 384 768 l 1
 384 896 l 1
 512 896 l 1
 512 768 l 1
 640 768 l 1
 640 640 l 1
 512 640 l 1
 512 512 l 1
 640 512 l 1
 640 384 l 1
 512 384 l 1
 512 256 l 1
 384 256 l 1
 384 384 l 1
 256 384 l 1
 256 256 l 1
 128 256 l 1
256 512 m 1
 384 512 l 1
 384 640 l 1
 256 640 l 1
 256 512 l 1
EndSplineSet
EndChar

StartChar: char36
Encoding: 4 36 3
GlifName: char36
Width: 768
Flags: HMW
LayerCount: 2
Back
SplineSet
0 256 m 1
 0 384 l 1
 128 384 l 1
 128 256 l 1
 0 256 l 1
384 1024 m 1
 512 1024 l 1
 512 896 l 1
 384 896 l 1
 384 640 l 1
 512 640 l 1
 512 512 l 1
 384 512 l 1
 384 256 l 1
 512 256 l 1
 512 512 l 1
 640 512 l 1
 640 256 l 1
 512 256 l 1
 512 128 l 1
 384 128 l 1
 384 0 l 1
 256 0 l 1
 256 128 l 1
 128 128 l 1
 128 256 l 1
 256 256 l 1
 256 512 l 1
 128 512 l 1
 128 640 l 1
 0 640 l 1
 0 896 l 1
 128 896 l 1
 128 1024 l 1
 256 1024 l 1
 256 1152 l 1
 384 1152 l 1
 384 1024 l 1
512 896 m 1
 640 896 l 1
 640 768 l 1
 512 768 l 1
 512 896 l 1
256 896 m 1
 128 896 l 1
 128 640 l 1
 256 640 l 1
 256 896 l 1
EndSplineSet
Fore
SplineSet
0 293 m 1
 91 384 l 1
 219 256 l 1
 256 256 l 1
 256 512 l 1
 165 512 l 1
 0 677 l 1
 0 859 l 1
 165 1024 l 1
 256 1024 l 1
 256 1152 l 1
 384 1152 l 1
 384 1024 l 1
 475 1024 l 1
 640 859 l 1
 549 768 l 1
 421 896 l 1
 384 896 l 1
 384 640 l 1
 475 640 l 1
 640 475 l 1
 640 293 l 1
 475 128 l 1
 384 128 l 1
 384 0 l 1
 256 0 l 1
 256 128 l 1
 165 128 l 1
 0 293 l 1
128 731 m 1
 219 640 l 1
 256 640 l 1
 256 896 l 1
 219 896 l 1
 128 805 l 1
 128 731 l 1
384 256 m 1
 421 256 l 1
 512 347 l 1
 512 421 l 1
 421 512 l 1
 384 512 l 1
 384 256 l 1
EndSplineSet
EndChar

StartChar: char37
Encoding: 5 37 4
GlifName: char37
Width: 768
Flags: HW
LayerCount: 2
Back
SplineSet
0 768 m 1
 0 896 l 1
 128 896 l 1
 128 768 l 1
 0 768 l 1
512 256 m 1
 512 384 l 1
 640 384 l 1
 640 256 l 1
 512 256 l 1
0 256 m 1
 0 384 l 1
 128 384 l 1
 128 512 l 1
 256 512 l 1
 256 640 l 1
 384 640 l 1
 384 768 l 1
 512 768 l 1
 512 896 l 1
 640 896 l 1
 640 768 l 1
 512 768 l 1
 512 640 l 1
 384 640 l 1
 384 512 l 1
 256 512 l 1
 256 384 l 1
 128 384 l 1
 128 256 l 1
 0 256 l 1
EndSplineSet
Fore
SplineSet
91 256 m 1
 640 805 l 1
 549 896 l 1
 0 347 l 1
 91 256 l 1
37 768 m 1
 0 805 l 1
 0 859 l 1
 37 896 l 1
 91 896 l 1
 128 859 l 1
 128 805 l 1
 91 768 l 1
 37 768 l 1
549 256 m 1
 512 293 l 1
 512 347 l 1
 549 384 l 1
 603 384 l 1
 640 347 l 1
 640 293 l 1
 603 256 l 1
 549 256 l 1
EndSplineSet
EndChar

StartChar: char38
Encoding: 6 38 5
GlifName: char38
Width: 768
Flags: HW
LayerCount: 2
Back
SplineSet
256 256 m 1
 256 384 l 1
 384 384 l 1
 384 256 l 1
 256 256 l 1
384 1024 m 1
 128 1024 l 1
 128 1152 l 1
 384 1152 l 1
 384 1024 l 1
384 1024 m 1
 512 1024 l 1
 512 768 l 1
 384 768 l 1
 384 1024 l 1
128 1024 m 1
 128 640 l 1
 0 640 l 1
 0 1024 l 1
 128 1024 l 1
128 640 m 1
 256 640 l 1
 256 512 l 1
 128 512 l 1
 128 640 l 1
128 512 m 1
 128 128 l 1
 0 128 l 1
 0 512 l 1
 128 512 l 1
512 256 m 1
 512 384 l 1
 640 384 l 1
 640 256 l 1
 512 256 l 1
512 256 m 1
 512 128 l 1
 384 128 l 1
 384 256 l 1
 512 256 l 1
512 128 m 1
 640 128 l 1
 640 0 l 1
 512 0 l 1
 512 128 l 1
384 128 m 1
 384 0 l 1
 128 0 l 1
 128 128 l 1
 384 128 l 1
EndSplineSet
Fore
SplineSet
165 0 m 1
 0 165 l 1
 0 475 l 1
 101 576 l 1
 0 677 l 1
 0 987 l 1
 165 1152 l 1
 347 1152 l 1
 512 987 l 1
 512 768 l 1
 384 768 l 1
 384 933 l 1
 293 1024 l 1
 219 1024 l 1
 128 933 l 1
 128 731 l 1
 283 576 l 1
 128 421 l 1
 128 219 l 1
 219 128 l 1
 293 128 l 1
 357 192 l 1
 256 293 l 1
 347 384 l 1
 448 283 l 1
 549 384 l 1
 640 293 l 1
 539 192 l 1
 640 91 l 1
 549 0 l 1
 448 101 l 1
 347 0 l 1
 165 0 l 1
EndSplineSet
EndChar

StartChar: char39
Encoding: 7 39 6
GlifName: char39
Width: 768
Flags: HW
LayerCount: 2
Back
SplineSet
384 1152 m 1
 384 768 l 1
 256 768 l 1
 256 1152 l 1
 384 1152 l 1
EndSplineSet
Fore
SplineSet
256 768 m 1
 256 1152 l 1
 384 1152 l 1
 384 768 l 1
 256 768 l 1
EndSplineSet
EndChar

StartChar: char40
Encoding: 8 40 7
GlifName: char40
Width: 768
Flags: HW
LayerCount: 2
Back
SplineSet
384 1024 m 1
 384 1152 l 1
 512 1152 l 1
 512 1024 l 1
 384 1024 l 1
384 1024 m 1
 384 896 l 1
 256 896 l 1
 256 1024 l 1
 384 1024 l 1
256 896 m 1
 256 0 l 1
 128 0 l 1
 128 896 l 1
 256 896 l 1
256 0 m 1
 384 0 l 1
 384 -128 l 1
 256 -128 l 1
 256 0 l 1
384 -128 m 1
 512 -128 l 1
 512 -256 l 1
 384 -256 l 1
 384 -128 l 1
EndSplineSet
Fore
SplineSet
421 -256 m 5
 128 37 l 1
 128 859 l 1
 421 1152 l 1
 512 1061 l 1
 256 805 l 1
 256 91 l 1
 512 -165 l 1
 421 -256 l 5
EndSplineSet
EndChar

StartChar: char41
Encoding: 9 41 8
GlifName: char41
Width: 768
Flags: HW
LayerCount: 2
Back
SplineSet
128 1024 m 1
 128 1152 l 1
 256 1152 l 1
 256 1024 l 1
 128 1024 l 1
128 -256 m 1
 128 -128 l 1
 256 -128 l 1
 256 0 l 1
 384 0 l 1
 384 896 l 1
 256 896 l 1
 256 1024 l 1
 384 1024 l 1
 384 896 l 1
 512 896 l 1
 512 0 l 1
 384 0 l 1
 384 -128 l 1
 256 -128 l 1
 256 -256 l 1
 128 -256 l 1
EndSplineSet
Fore
SplineSet
219 -256 m 1
 128 -165 l 1
 384 91 l 1
 384 805 l 1
 128 1061 l 1
 219 1152 l 1
 512 859 l 1
 512 37 l 1
 219 -256 l 1
EndSplineSet
EndChar

StartChar: char42
Encoding: 10 42 9
GlifName: char42
Width: 768
Flags: HW
LayerCount: 2
Back
SplineSet
0 640 m 1
 0 768 l 1
 128 768 l 1
 128 640 l 1
 0 640 l 1
0 384 m 1
 0 512 l 1
 128 512 l 1
 128 640 l 1
 256 640 l 1
 256 896 l 1
 384 896 l 1
 384 640 l 1
 512 640 l 1
 512 768 l 1
 640 768 l 1
 640 640 l 1
 512 640 l 1
 512 512 l 1
 384 512 l 1
 384 256 l 1
 256 256 l 1
 256 512 l 1
 128 512 l 1
 128 384 l 1
 0 384 l 1
512 512 m 1
 640 512 l 1
 640 384 l 1
 512 384 l 1
 512 512 l 1
EndSplineSet
Fore
SplineSet
256 256 m 1
 256 512 l 1
 219 512 l 1
 91 384 l 1
 0 475 l 1
 101 576 l 1
 0 677 l 1
 91 768 l 1
 219 640 l 1
 256 640 l 1
 256 896 l 1
 384 896 l 1
 384 640 l 1
 421 640 l 1
 549 768 l 1
 640 677 l 1
 539 576 l 1
 640 475 l 1
 549 384 l 1
 421 512 l 1
 384 512 l 1
 384 256 l 1
 256 256 l 1
EndSplineSet
EndChar

StartChar: char43
Encoding: 11 43 10
GlifName: char43
Width: 768
Flags: HW
LayerCount: 2
Back
SplineSet
0 512 m 1
 0 640 l 1
 256 640 l 1
 256 896 l 1
 384 896 l 1
 384 640 l 1
 640 640 l 1
 640 512 l 1
 384 512 l 1
 384 256 l 1
 256 256 l 1
 256 512 l 1
 0 512 l 1
EndSplineSet
Fore
SplineSet
256 256 m 1
 256 512 l 1
 0 512 l 1
 0 640 l 1
 256 640 l 1
 256 896 l 1
 384 896 l 1
 384 640 l 1
 640 640 l 1
 640 512 l 1
 384 512 l 1
 384 256 l 1
 256 256 l 1
EndSplineSet
EndChar

StartChar: char44
Encoding: 12 44 11
GlifName: char44
Width: 768
Flags: HW
LayerCount: 2
Back
SplineSet
128 -256 m 1
 128 -128 l 1
 256 -128 l 1
 256 0 l 1
 384 0 l 1
 384 128 l 1
 512 128 l 1
 512 0 l 1
 384 0 l 1
 384 -128 l 1
 256 -128 l 1
 256 -256 l 1
 128 -256 l 1
EndSplineSet
Fore
SplineSet
219 -256 m 1
 128 -165 l 1
 421 128 l 1
 512 37 l 1
 219 -256 l 1
EndSplineSet
EndChar

StartChar: char45
Encoding: 13 45 12
GlifName: char45
Width: 768
Flags: HW
LayerCount: 2
Back
SplineSet
0 512 m 1
 0 640 l 1
 640 640 l 1
 640 512 l 1
 0 512 l 1
EndSplineSet
Fore
SplineSet
0 512 m 1
 0 640 l 1
 640 640 l 1
 640 512 l 1
 0 512 l 1
EndSplineSet
EndChar

StartChar: char46
Encoding: 14 46 13
GlifName: char46
Width: 768
Flags: HW
LayerCount: 2
Back
SplineSet
256 0 m 1
 256 128 l 1
 384 128 l 1
 384 0 l 1
 256 0 l 1
EndSplineSet
Fore
SplineSet
256 0 m 1
 256 128 l 1
 384 128 l 1
 384 0 l 1
 256 0 l 1
EndSplineSet
EndChar

StartChar: char47
Encoding: 15 47 14
GlifName: char47
Width: 768
Flags: HW
LayerCount: 2
Back
SplineSet
0 256 m 1
 0 384 l 1
 128 384 l 1
 128 512 l 1
 256 512 l 1
 256 640 l 1
 384 640 l 1
 384 768 l 1
 512 768 l 1
 512 896 l 1
 640 896 l 1
 640 768 l 1
 512 768 l 1
 512 640 l 1
 384 640 l 1
 384 512 l 1
 256 512 l 1
 256 384 l 1
 128 384 l 1
 128 256 l 1
 0 256 l 1
EndSplineSet
Fore
SplineSet
91 256 m 1
 0 347 l 1
 549 896 l 1
 640 805 l 1
 91 256 l 1
EndSplineSet
EndChar

StartChar: char48
Encoding: 16 48 15
GlifName: char48
Width: 768
Flags: HW
HStem: 0 128<219 421> 1024 128<219 421>
VStem: 0 128<219 293 475 933> 512 126<219 677 859 933>
LayerCount: 2
Back
SplineSet
512 1024 m 1
 128 1024 l 1
 128 1152 l 1
 512 1152 l 1
 512 1024 l 1
512 1024 m 1
 640 1024 l 1
 640 128 l 1
 512 128 l 1
 512 640 l 1
 384 640 l 1
 384 768 l 1
 512 768 l 1
 512 1024 l 1
128 1024 m 1
 128 512 l 1
 256 512 l 1
 256 640 l 1
 384 640 l 1
 384 512 l 1
 256 512 l 1
 256 384 l 1
 128 384 l 1
 128 128 l 1
 0 128 l 1
 0 1024 l 1
 128 1024 l 1
512 128 m 1
 512 0 l 1
 128 0 l 1
 128 128 l 1
 512 128 l 1
EndSplineSet
Fore
SplineSet
128 475 m 1
 512 859 l 1
 512 933 l 1
 421 1024 l 1
 219 1024 l 1
 128 933 l 1
 128 475 l 1
219 128 m 1
 421 128 l 1
 512 219 l 1
 512 677 l 1
 128 293 l 1
 128 219 l 1
 219 128 l 1
165 0 m 1
 0 165 l 1
 0 987 l 1
 165 1152 l 1
 475 1152 l 1
 640 987 l 1
 640 165 l 1
 475 0 l 1
 165 0 l 1
EndSplineSet
EndChar

StartChar: char49
Encoding: 17 49 16
GlifName: char49
Width: 768
Flags: HW
HStem: 0 128<0 256 384 640>
VStem: 256 128<128 933>
LayerCount: 2
Back
SplineSet
0 768 m 1
 0 896 l 1
 128 896 l 1
 128 1024 l 1
 256 1024 l 1
 256 1152 l 1
 384 1152 l 1
 384 128 l 1
 640 128 l 1
 640 0 l 1
 0 0 l 1
 0 128 l 1
 256 128 l 1
 256 896 l 1
 128 896 l 1
 128 768 l 1
 0 768 l 1
EndSplineSet
Fore
SplineSet
0 0 m 1
 0 128 l 1
 256 128 l 1
 256 933 l 1
 91 768 l 1
 0 859 l 1
 384 1243 l 1
 384 128 l 1
 640 128 l 1
 640 0 l 1
 0 0 l 1
EndSplineSet
EndChar

StartChar: char50
Encoding: 18 50 17
GlifName: char50
Width: 768
Flags: HW
HStem: 0 128<128 641> 1024 128<219 421>
VStem: 0 128<128 293> 512 128<859 933>
LayerCount: 2
Back
SplineSet
0 896 m 1
 0 1024 l 1
 128 1024 l 1
 128 1152 l 1
 512 1152 l 1
 512 1024 l 1
 128 1024 l 1
 128 896 l 1
 0 896 l 1
512 1024 m 1
 640 1024 l 1
 640 768 l 1
 512 768 l 1
 512 1024 l 1
512 768 m 1
 512 640 l 1
 384 640 l 1
 384 768 l 1
 512 768 l 1
384 640 m 1
 384 512 l 1
 256 512 l 1
 256 640 l 1
 384 640 l 1
256 512 m 1
 256 384 l 1
 128 384 l 1
 128 512 l 1
 256 512 l 1
128 384 m 1
 128 128 l 1
 640 128 l 1
 640 0 l 1
 0 0 l 1
 0 384 l 1
 128 384 l 1
EndSplineSet
Fore
SplineSet
0 0 m 1
 0 347 l 1
 512 859 l 1
 512 933 l 1
 421 1024 l 1
 219 1024 l 1
 91 896 l 1
 0 987 l 1
 165 1152 l 1
 475 1152 l 1
 640 987 l 1
 640 805 l 1
 128 293 l 1
 128 128 l 1
 640 128 l 1
 640 0 l 1
 0 0 l 1
EndSplineSet
EndChar

StartChar: char51
Encoding: 19 51 18
GlifName: char51
Width: 768
Flags: HW
HStem: 0 128<219 421> 512 128<256 421> 1024 128<220 421>
VStem: 512 128<219 421 731 933>
CounterMasks: 1 e0
LayerCount: 2
Back
SplineSet
0 896 m 1
 0 1024 l 1
 128 1024 l 1
 128 1152 l 1
 512 1152 l 1
 512 1024 l 1
 128 1024 l 1
 128 896 l 1
 0 896 l 1
256 512 m 1
 256 640 l 1
 512 640 l 1
 512 1024 l 1
 640 1024 l 1
 640 640 l 1
 512 640 l 1
 512 512 l 1
 256 512 l 1
0 128 m 1
 0 256 l 1
 128 256 l 1
 128 128 l 1
 0 128 l 1
512 512 m 1
 640 512 l 1
 640 128 l 1
 512 128 l 1
 512 512 l 1
512 128 m 1
 512 0 l 1
 128 0 l 1
 128 128 l 1
 512 128 l 1
EndSplineSet
Fore
SplineSet
512 219 m 1
 512 421 l 1
 421 512 l 1
 256 512 l 1
 256 640 l 1
 421 640 l 1
 512 731 l 1
 512 933 l 1
 421 1024 l 1
 219 1024 l 1
 91 896 l 1
 0 987 l 1
 165 1152 l 1
 475 1152 l 1
 640 987 l 1
 640 677 l 1
 539 576 l 1
 640 475 l 1
 640 165 l 1
 475 0 l 1
 165 0 l 1
 0 165 l 1
 91 256 l 1
 219 128 l 1
 421 128 l 1
 512 219 l 1
EndSplineSet
EndChar

StartChar: char52
Encoding: 20 52 19
GlifName: char52
Width: 768
Flags: HW
HStem: 0 21G<383 512> 512 128<128 383 512 640>
VStem: 0 128<640 677> 383 129<0 512 642 936>
LayerCount: 2
Back
SplineSet
512 1152 m 1
 512 640 l 1
 640 640 l 1
 640 512 l 1
 512 512 l 1
 512 0 l 1
 384 0 l 1
 384 512 l 1
 0 512 l 1
 0 768 l 1
 128 768 l 1
 128 896 l 1
 256 896 l 1
 256 1024 l 1
 384 1024 l 1
 384 1152 l 1
 512 1152 l 1
384 896 m 1
 256 896 l 1
 256 768 l 1
 128 768 l 1
 128 640 l 1
 384 640 l 1
 384 896 l 1
EndSplineSet
Fore
SplineSet
0 512 m 1
 0 731 l 1
 421 1152 l 1
 512 1152 l 1
 512 640 l 1
 640 640 l 1
 640 512 l 1
 512 512 l 1
 512 0 l 1
 384 0 l 1
 384 512 l 1
 0 512 l 1
128 640 m 1
 384 640 l 1
 384 933 l 1
 128 677 l 1
 128 640 l 1
EndSplineSet
EndChar

StartChar: char53
Encoding: 21 53 20
GlifName: char53
Width: 768
Flags: HW
LayerCount: 2
Back
SplineSet
0 128 m 1
 0 256 l 1
 128 256 l 1
 128 128 l 1
 0 128 l 1
640 1024 m 1
 128 1024 l 1
 128 640 l 1
 512 640 l 1
 512 512 l 1
 0 512 l 1
 0 1152 l 1
 640 1152 l 1
 640 1024 l 1
512 512 m 1
 640 512 l 1
 640 128 l 1
 512 128 l 1
 512 512 l 1
512 128 m 1
 512 0 l 1
 128 0 l 1
 128 128 l 1
 512 128 l 1
EndSplineSet
Fore
SplineSet
165 0 m 1
 0 165 l 1
 91 256 l 1
 219 128 l 1
 421 128 l 1
 512 219 l 1
 512 421 l 1
 421 512 l 1
 0 512 l 1
 0 1152 l 1
 640 1152 l 1
 640 1024 l 1
 128 1024 l 1
 128 640 l 1
 475 640 l 1
 640 475 l 1
 640 165 l 1
 475 0 l 1
 165 0 l 1
EndSplineSet
EndChar

StartChar: char54
Encoding: 22 54 21
GlifName: char54
Width: 768
Flags: HW
LayerCount: 2
Back
SplineSet
512 1024 m 1
 128 1024 l 1
 128 1152 l 1
 512 1152 l 1
 512 1024 l 1
512 1024 m 1
 640 1024 l 1
 640 896 l 1
 512 896 l 1
 512 1024 l 1
128 1024 m 1
 128 640 l 1
 512 640 l 1
 512 512 l 1
 128 512 l 1
 128 128 l 1
 0 128 l 1
 0 1024 l 1
 128 1024 l 1
512 512 m 1
 640 512 l 1
 640 128 l 1
 512 128 l 1
 512 512 l 1
512 128 m 1
 512 0 l 1
 128 0 l 1
 128 128 l 1
 512 128 l 1
EndSplineSet
Fore
SplineSet
421 128 m 1
 512 219 l 1
 512 421 l 1
 421 512 l 1
 128 512 l 1
 128 219 l 1
 219 128 l 1
 421 128 l 1
165 0 m 1
 0 165 l 1
 0 987 l 1
 165 1152 l 1
 475 1152 l 1
 640 987 l 1
 549 896 l 1
 421 1024 l 1
 219 1024 l 1
 128 933 l 1
 128 640 l 1
 475 640 l 1
 640 475 l 1
 640 165 l 1
 475 0 l 1
 165 0 l 1
EndSplineSet
EndChar

StartChar: char55
Encoding: 23 55 22
GlifName: char55
Width: 768
Flags: HW
LayerCount: 2
Back
SplineSet
0 1024 m 1
 0 1152 l 1
 640 1152 l 1
 640 768 l 1
 512 768 l 1
 512 1024 l 1
 0 1024 l 1
512 768 m 1
 512 640 l 1
 384 640 l 1
 384 768 l 1
 512 768 l 1
384 640 m 1
 384 0 l 1
 256 0 l 1
 256 640 l 1
 384 640 l 1
EndSplineSet
Fore
SplineSet
256 0 m 1
 256 603 l 1
 512 859 l 1
 512 1024 l 1
 0 1024 l 1
 0 1152 l 1
 640 1152 l 1
 640 805 l 1
 384 549 l 1
 384 0 l 1
 256 0 l 1
EndSplineSet
EndChar

StartChar: char56
Encoding: 24 56 23
GlifName: char56
Width: 768
Flags: HW
LayerCount: 2
Back
SplineSet
512 1024 m 1
 128 1024 l 1
 128 1152 l 1
 512 1152 l 1
 512 1024 l 1
512 1024 m 1
 640 1024 l 1
 640 640 l 1
 512 640 l 1
 512 1024 l 1
128 1024 m 1
 128 640 l 1
 0 640 l 1
 0 1024 l 1
 128 1024 l 1
512 640 m 1
 512 512 l 1
 128 512 l 1
 128 640 l 1
 512 640 l 1
512 512 m 1
 640 512 l 1
 640 128 l 1
 512 128 l 1
 512 512 l 1
128 512 m 1
 128 128 l 1
 0 128 l 1
 0 512 l 1
 128 512 l 1
512 128 m 1
 512 0 l 1
 128 0 l 1
 128 128 l 1
 512 128 l 1
EndSplineSet
Fore
SplineSet
219 128 m 1
 421 128 l 1
 512 219 l 1
 512 421 l 1
 421 512 l 1
 219 512 l 1
 128 421 l 1
 128 219 l 1
 219 128 l 1
421 640 m 1
 512 731 l 1
 512 933 l 1
 421 1024 l 1
 219 1024 l 1
 128 933 l 1
 128 731 l 1
 219 640 l 1
 421 640 l 1
165 0 m 1
 0 165 l 1
 0 475 l 1
 101 576 l 1
 0 677 l 1
 0 987 l 1
 165 1152 l 1
 475 1152 l 1
 640 987 l 1
 640 677 l 1
 539 576 l 1
 640 475 l 1
 640 165 l 1
 475 0 l 1
 165 0 l 1
EndSplineSet
EndChar

StartChar: char57
Encoding: 25 57 24
GlifName: char57
Width: 768
Flags: HW
LayerCount: 2
Back
SplineSet
0 128 m 1
 0 256 l 1
 128 256 l 1
 128 128 l 1
 0 128 l 1
512 1024 m 1
 128 1024 l 1
 128 1152 l 1
 512 1152 l 1
 512 1024 l 1
512 1024 m 1
 640 1024 l 1
 640 128 l 1
 512 128 l 1
 512 512 l 1
 128 512 l 1
 128 640 l 1
 0 640 l 1
 0 1024 l 1
 128 1024 l 1
 128 640 l 1
 512 640 l 1
 512 1024 l 1
512 128 m 1
 512 0 l 1
 128 0 l 1
 128 128 l 1
 512 128 l 1
EndSplineSet
Fore
SplineSet
165 0 m 1
 0 165 l 1
 91 256 l 1
 219 128 l 1
 421 128 l 1
 512 219 l 1
 512 512 l 1
 165 512 l 1
 0 677 l 1
 0 987 l 1
 165 1152 l 1
 475 1152 l 1
 640 987 l 1
 640 165 l 1
 475 0 l 1
 165 0 l 1
128 731 m 1
 219 640 l 1
 512 640 l 1
 512 933 l 1
 421 1024 l 1
 219 1024 l 1
 128 933 l 1
 128 731 l 1
EndSplineSet
EndChar

StartChar: char58
Encoding: 26 58 25
GlifName: char58
Width: 768
Flags: HW
LayerCount: 2
Back
SplineSet
256 768 m 1
 256 896 l 1
 384 896 l 1
 384 768 l 1
 256 768 l 1
256 256 m 1
 256 384 l 1
 384 384 l 1
 384 256 l 1
 256 256 l 1
EndSplineSet
Fore
SplineSet
256 768 m 1
 256 896 l 1
 384 896 l 1
 384 768 l 1
 256 768 l 1
256 256 m 1
 256 384 l 1
 384 384 l 1
 384 256 l 1
 256 256 l 1
EndSplineSet
EndChar

StartChar: char59
Encoding: 27 59 26
GlifName: char59
Width: 768
Flags: HW
LayerCount: 2
Back
SplineSet
384 768 m 1
 384 896 l 1
 512 896 l 1
 512 768 l 1
 384 768 l 1
128 0 m 1
 128 128 l 1
 256 128 l 1
 256 256 l 1
 384 256 l 1
 384 384 l 1
 512 384 l 1
 512 256 l 1
 384 256 l 1
 384 128 l 1
 256 128 l 1
 256 0 l 1
 128 0 l 1
EndSplineSet
Fore
SplineSet
384 768 m 1
 384 896 l 1
 512 896 l 1
 512 768 l 1
 384 768 l 1
219 0 m 1
 128 91 l 1
 421 384 l 1
 512 293 l 1
 219 0 l 1
EndSplineSet
EndChar

StartChar: char60
Encoding: 28 60 27
GlifName: char60
Width: 768
Flags: HW
LayerCount: 2
Back
SplineSet
128 512 m 1
 128 640 l 1
 256 640 l 1
 256 768 l 1
 384 768 l 1
 384 896 l 1
 512 896 l 1
 512 768 l 1
 384 768 l 1
 384 640 l 1
 256 640 l 1
 256 512 l 1
 128 512 l 1
256 512 m 1
 384 512 l 1
 384 384 l 1
 256 384 l 1
 256 512 l 1
384 384 m 1
 512 384 l 1
 512 256 l 1
 384 256 l 1
 384 384 l 1
EndSplineSet
Fore
SplineSet
421 256 m 5
 101 576 l 5
 421 896 l 5
 512 805 l 5
 283 576 l 5
 512 347 l 5
 421 256 l 5
EndSplineSet
EndChar

StartChar: char61
Encoding: 29 61 28
GlifName: char61
Width: 768
Flags: HW
LayerCount: 2
Back
SplineSet
0 640 m 1
 0 768 l 1
 640 768 l 1
 640 640 l 1
 0 640 l 1
0 384 m 1
 0 512 l 1
 640 512 l 1
 640 384 l 1
 0 384 l 1
EndSplineSet
Fore
SplineSet
0 640 m 1
 0 768 l 1
 640 768 l 1
 640 640 l 1
 0 640 l 1
0 384 m 1
 0 512 l 1
 640 512 l 1
 640 384 l 1
 0 384 l 1
EndSplineSet
EndChar

StartChar: char62
Encoding: 30 62 29
GlifName: char62
Width: 768
Flags: HW
LayerCount: 2
Back
SplineSet
128 768 m 1
 128 896 l 1
 256 896 l 1
 256 768 l 1
 128 768 l 1
128 256 m 1
 128 384 l 1
 256 384 l 1
 256 512 l 1
 384 512 l 1
 384 640 l 1
 256 640 l 1
 256 768 l 1
 384 768 l 1
 384 640 l 1
 512 640 l 1
 512 512 l 1
 384 512 l 1
 384 384 l 1
 256 384 l 1
 256 256 l 1
 128 256 l 1
EndSplineSet
Fore
SplineSet
219 256 m 1
 539 576 l 1
 219 896 l 1
 128 805 l 1
 357 576 l 1
 128 347 l 1
 219 256 l 1
EndSplineSet
EndChar

StartChar: char63
Encoding: 31 63 30
GlifName: char63
Width: 768
Flags: HW
LayerCount: 2
Back
SplineSet
256 0 m 1
 256 128 l 1
 384 128 l 1
 384 0 l 1
 256 0 l 1
512 1024 m 1
 128 1024 l 1
 128 1152 l 1
 512 1152 l 1
 512 1024 l 1
512 1024 m 1
 640 1024 l 1
 640 640 l 1
 512 640 l 1
 512 1024 l 1
128 1024 m 1
 128 768 l 1
 0 768 l 1
 0 1024 l 1
 128 1024 l 1
512 640 m 1
 512 512 l 1
 384 512 l 1
 384 640 l 1
 512 640 l 1
384 512 m 1
 384 256 l 1
 256 256 l 1
 256 512 l 1
 384 512 l 1
EndSplineSet
Fore
SplineSet
256 256 m 1
 256 475 l 1
 512 731 l 1
 512 933 l 1
 421 1024 l 1
 219 1024 l 1
 128 933 l 1
 128 768 l 1
 0 768 l 1
 0 987 l 1
 165 1152 l 1
 475 1152 l 1
 640 987 l 1
 640 677 l 1
 384 421 l 1
 384 256 l 1
 256 256 l 1
256 0 m 1
 256 128 l 1
 384 128 l 1
 384 0 l 1
 256 0 l 1
EndSplineSet
EndChar

StartChar: char64
Encoding: 32 64 31
GlifName: char64
Width: 768
Flags: HW
LayerCount: 2
Back
SplineSet
512 1024 m 1
 128 1024 l 1
 128 1152 l 1
 512 1152 l 1
 512 1024 l 1
512 1024 m 1
 640 1024 l 1
 640 256 l 1
 384 256 l 1
 384 384 l 1
 256 384 l 1
 256 640 l 1
 384 640 l 1
 384 768 l 1
 512 768 l 1
 512 1024 l 1
128 1024 m 1
 128 128 l 1
 0 128 l 1
 0 1024 l 1
 128 1024 l 1
512 640 m 1
 384 640 l 1
 384 384 l 1
 512 384 l 1
 512 640 l 1
512 0 m 1
 128 0 l 1
 128 128 l 1
 512 128 l 1
 512 0 l 1
EndSplineSet
Fore
SplineSet
0 165 m 1
 0 987 l 1
 165 1152 l 1
 475 1152 l 1
 640 987 l 1
 640 256 l 1
 421 256 l 1
 256 421 l 1
 256 603 l 1
 421 768 l 1
 512 768 l 1
 512 933 l 1
 421 1024 l 1
 219 1024 l 1
 128 933 l 1
 128 219 l 1
 219 128 l 1
 512 128 l 1
 512 0 l 1
 165 0 l 1
 0 165 l 1
384 549 m 1
 384 475 l 1
 475 384 l 1
 512 384 l 1
 512 640 l 1
 475 640 l 1
 384 549 l 1
EndSplineSet
EndChar

StartChar: char65
Encoding: 33 65 32
GlifName: char65
Width: 768
Flags: HW
HStem: 0 21G<0 128 512 640> 512 128<128 512> 1024 128<219 421>
VStem: 0 128<0 512 640 933> 512 128<0 512 640 933>
LayerCount: 2
Back
SplineSet
512 1024 m 1
 128 1024 l 1
 128 1152 l 1
 512 1152 l 1
 512 1024 l 1
512 1024 m 1
 640 1024 l 1
 640 0 l 1
 512 0 l 1
 512 512 l 1
 128 512 l 1
 128 0 l 1
 0 0 l 1
 0 1024 l 1
 128 1024 l 1
 128 640 l 1
 512 640 l 1
 512 1024 l 1
EndSplineSet
Fore
SplineSet
0 0 m 1
 0 987 l 1
 165 1152 l 1
 475 1152 l 1
 640 987 l 1
 640 0 l 1
 512 0 l 1
 512 512 l 1
 128 512 l 1
 128 0 l 1
 0 0 l 1
128 640 m 1
 512 640 l 1
 512 933 l 1
 421 1024 l 1
 219 1024 l 1
 128 933 l 1
 128 640 l 1
EndSplineSet
EndChar

StartChar: char66
Encoding: 34 66 33
GlifName: char66
Width: 768
Flags: HW
HStem: 0 128<128 421> 512 128<128 421> 1024 128<128 421>
VStem: 0 128<128 512 640 1024> 512 128<219 421 731 933>
CounterMasks: 1 e0
LayerCount: 2
Back
SplineSet
512 1024 m 1
 128 1024 l 1
 128 640 l 1
 512 640 l 1
 512 1024 l 1
0 1152 m 1
 512 1152 l 1
 512 1024 l 1
 640 1024 l 1
 640 640 l 1
 512 640 l 1
 512 512 l 1
 128 512 l 1
 128 128 l 1
 512 128 l 1
 512 512 l 1
 640 512 l 1
 640 128 l 1
 512 128 l 1
 512 0 l 1
 0 0 l 1
 0 1152 l 1
EndSplineSet
Fore
SplineSet
0 0 m 1
 0 1152 l 1
 475 1152 l 1
 640 987 l 1
 640 677 l 1
 539 576 l 1
 640 475 l 1
 640 165 l 1
 475 0 l 1
 0 0 l 1
128 128 m 1
 421 128 l 1
 512 219 l 1
 512 421 l 1
 421 512 l 1
 128 512 l 1
 128 128 l 1
128 640 m 1
 421 640 l 1
 512 731 l 1
 512 933 l 1
 421 1024 l 1
 128 1024 l 1
 128 640 l 1
EndSplineSet
EndChar

StartChar: char67
Encoding: 35 67 34
GlifName: char67
Width: 768
Flags: HW
HStem: 0 128<219 421> 896 21G<529 569> 1024 128<219 421>
VStem: 0 128<219 933>
LayerCount: 2
Back
SplineSet
512 1024 m 1
 128 1024 l 1
 128 1152 l 1
 512 1152 l 1
 512 1024 l 1
512 1024 m 1
 640 1024 l 1
 640 896 l 1
 512 896 l 1
 512 1024 l 1
128 1024 m 1
 128 128 l 1
 0 128 l 1
 0 1024 l 1
 128 1024 l 1
512 128 m 1
 512 256 l 1
 640 256 l 1
 640 128 l 1
 512 128 l 1
512 128 m 1
 512 0 l 1
 128 0 l 1
 128 128 l 1
 512 128 l 1
EndSplineSet
Fore
SplineSet
165 0 m 1
 0 165 l 1
 0 987 l 1
 165 1152 l 1
 475 1152 l 1
 640 987 l 1
 549 896 l 1
 421 1024 l 1
 219 1024 l 1
 128 933 l 1
 128 219 l 1
 219 128 l 1
 421 128 l 1
 549 256 l 1
 640 165 l 1
 475 0 l 1
 165 0 l 1
EndSplineSet
EndChar

StartChar: char68
Encoding: 36 68 35
GlifName: char68
Width: 768
Flags: HW
HStem: 0 128<128 421> 1024 128<128 421>
VStem: 0 128<128 1024> 512 128<219 933>
LayerCount: 2
Back
SplineSet
512 1024 m 1
 128 1024 l 1
 128 128 l 1
 512 128 l 1
 512 1024 l 1
0 1152 m 1
 512 1152 l 1
 512 1024 l 1
 640 1024 l 1
 640 128 l 1
 512 128 l 1
 512 0 l 1
 0 0 l 1
 0 1152 l 1
EndSplineSet
Fore
SplineSet
128 128 m 1
 421 128 l 1
 512 219 l 1
 512 933 l 1
 421 1024 l 1
 128 1024 l 1
 128 128 l 1
0 0 m 1
 0 1152 l 1
 475 1152 l 1
 640 987 l 1
 640 165 l 1
 475 0 l 1
 0 0 l 1
EndSplineSet
EndChar

StartChar: char69
Encoding: 37 69 36
GlifName: char69
Width: 768
Flags: HW
HStem: 0 128<128 640> 512 128<128 512> 1024 128<128 640>
VStem: 0 128<128 512 640 1024>
CounterMasks: 1 e0
LayerCount: 2
Back
SplineSet
640 1024 m 1
 128 1024 l 1
 128 640 l 1
 512 640 l 1
 512 512 l 1
 128 512 l 1
 128 128 l 1
 640 128 l 1
 640 0 l 1
 0 0 l 1
 0 1152 l 1
 640 1152 l 1
 640 1024 l 1
EndSplineSet
Fore
SplineSet
0 0 m 1
 0 1152 l 1
 640 1152 l 1
 640 1024 l 1
 128 1024 l 1
 128 640 l 1
 512 640 l 1
 512 512 l 1
 128 512 l 1
 128 128 l 1
 640 128 l 1
 640 0 l 1
 0 0 l 1
EndSplineSet
EndChar

StartChar: char70
Encoding: 38 70 37
GlifName: char70
Width: 768
Flags: HW
HStem: 0 21G<0 128> 512 128<128 512> 1024 128<128 640>
VStem: 0 128<0 512 640 1024>
LayerCount: 2
Back
SplineSet
640 1024 m 1
 128 1024 l 1
 128 640 l 1
 512 640 l 1
 512 512 l 1
 128 512 l 1
 128 0 l 1
 0 0 l 1
 0 1152 l 1
 640 1152 l 1
 640 1024 l 1
EndSplineSet
Fore
SplineSet
0 0 m 1
 0 1152 l 1
 640 1152 l 1
 640 1024 l 1
 128 1024 l 1
 128 640 l 1
 512 640 l 1
 512 512 l 1
 128 512 l 1
 128 0 l 1
 0 0 l 1
EndSplineSet
EndChar

StartChar: char71
Encoding: 39 71 38
GlifName: char71
Width: 768
Flags: HW
HStem: 0 128<219 421> 512 128<384 512> 896 21G<529 569> 1024 128<219 421>
VStem: 0 128<219 933> 384 256<512 640> 512 128<219 512>
LayerCount: 2
Back
SplineSet
384 512 m 1
 384 640 l 1
 640 640 l 1
 640 128 l 1
 512 128 l 1
 512 512 l 1
 384 512 l 1
512 1024 m 1
 128 1024 l 1
 128 1152 l 1
 512 1152 l 1
 512 1024 l 1
512 1024 m 1
 640 1024 l 1
 640 896 l 1
 512 896 l 1
 512 1024 l 1
128 1024 m 1
 128 128 l 1
 0 128 l 1
 0 1024 l 1
 128 1024 l 1
512 128 m 1
 512 0 l 1
 128 0 l 1
 128 128 l 1
 512 128 l 1
EndSplineSet
Fore
SplineSet
165 0 m 1
 0 165 l 1
 0 987 l 1
 165 1152 l 1
 475 1152 l 1
 640 987 l 1
 549 896 l 1
 421 1024 l 1
 219 1024 l 1
 128 933 l 1
 128 219 l 1
 219 128 l 1
 421 128 l 1
 512 219 l 1
 512 512 l 1
 384 512 l 1
 384 640 l 1
 640 640 l 1
 640 165 l 1
 475 0 l 1
 165 0 l 1
EndSplineSet
EndChar

StartChar: char72
Encoding: 40 72 39
GlifName: char72
Width: 768
Flags: HW
HStem: 0 21G<0 128 512 640> 512 128<128 512> 1132 20G<0 128 512 640>
VStem: 0 128<0 512 640 1152> 512 128<0 512 640 1152>
LayerCount: 2
Back
SplineSet
640 1152 m 1
 640 0 l 1
 512 0 l 1
 512 512 l 1
 128 512 l 1
 128 0 l 1
 0 0 l 1
 0 1152 l 1
 128 1152 l 1
 128 640 l 1
 512 640 l 1
 512 1152 l 1
 640 1152 l 1
EndSplineSet
Fore
SplineSet
0 0 m 1
 0 1152 l 1
 128 1152 l 1
 128 640 l 1
 512 640 l 1
 512 1152 l 1
 640 1152 l 1
 640 0 l 1
 512 0 l 1
 512 512 l 1
 128 512 l 1
 128 0 l 1
 0 0 l 1
EndSplineSet
EndChar

StartChar: char73
Encoding: 41 73 40
GlifName: char73
Width: 768
Flags: HW
HStem: 0 128<0 256 384 640> 1024 128<0 256 384 640>
VStem: 256 128<128 1024>
LayerCount: 2
Back
SplineSet
0 1024 m 1
 0 1152 l 1
 640 1152 l 1
 640 1024 l 1
 384 1024 l 1
 384 128 l 1
 640 128 l 1
 640 0 l 1
 0 0 l 1
 0 128 l 1
 256 128 l 1
 256 1024 l 1
 0 1024 l 1
EndSplineSet
Fore
SplineSet
0 0 m 5
 0 128 l 1
 256 128 l 1
 256 1024 l 1
 0 1024 l 1
 0 1152 l 1
 640 1152 l 1
 640 1024 l 1
 384 1024 l 1
 384 128 l 1
 640 128 l 1
 640 0 l 1
 0 0 l 5
EndSplineSet
EndChar

StartChar: char74
Encoding: 42 74 41
GlifName: char74
Width: 768
Flags: HW
HStem: 0 128<219 421> 1132 20G<512 640>
VStem: 512 128<219 1152>
LayerCount: 2
Back
SplineSet
0 128 m 1
 0 256 l 1
 128 256 l 1
 128 128 l 1
 0 128 l 1
640 1152 m 1
 640 128 l 1
 512 128 l 1
 512 1152 l 1
 640 1152 l 1
512 128 m 1
 512 0 l 1
 128 0 l 1
 128 128 l 1
 512 128 l 1
EndSplineSet
Fore
SplineSet
165 0 m 1
 0 165 l 1
 91 256 l 1
 219 128 l 1
 421 128 l 1
 512 219 l 1
 512 1152 l 1
 640 1152 l 1
 640 165 l 1
 475 0 l 1
 165 0 l 1
EndSplineSet
EndChar

StartChar: char75
Encoding: 43 75 42
GlifName: char75
Width: 768
Flags: HW
HStem: 0 21G<0 128 529 569> 1132 20G<0 128 529 569>
VStem: 0 128<0 421 731 1152>
LayerCount: 2
Back
SplineSet
512 1024 m 1
 512 1152 l 1
 640 1152 l 1
 640 1024 l 1
 512 1024 l 1
512 1024 m 1
 512 896 l 1
 384 896 l 1
 384 1024 l 1
 512 1024 l 1
128 1152 m 1
 128 768 l 1
 256 768 l 1
 256 896 l 1
 384 896 l 1
 384 768 l 1
 256 768 l 1
 256 640 l 1
 128 640 l 1
 128 512 l 1
 256 512 l 1
 256 384 l 1
 128 384 l 1
 128 0 l 1
 0 0 l 1
 0 1152 l 1
 128 1152 l 1
256 384 m 1
 384 384 l 1
 384 256 l 1
 256 256 l 1
 256 384 l 1
384 256 m 1
 512 256 l 1
 512 128 l 1
 384 128 l 1
 384 256 l 1
512 128 m 1
 640 128 l 1
 640 0 l 1
 512 0 l 1
 512 128 l 1
EndSplineSet
Fore
SplineSet
0 0 m 1
 0 1152 l 1
 128 1152 l 1
 128 731 l 1
 549 1152 l 1
 640 1061 l 1
 155 576 l 1
 640 91 l 1
 549 0 l 1
 128 421 l 1
 128 0 l 1
 0 0 l 1
EndSplineSet
EndChar

StartChar: char76
Encoding: 44 76 43
GlifName: char76
Width: 768
Flags: HW
HStem: 0 128<128 640> 1132 20G<0 128>
VStem: 0 128<128 1152>
LayerCount: 2
Back
SplineSet
128 1152 m 1
 128 128 l 1
 640 128 l 1
 640 0 l 1
 0 0 l 1
 0 1152 l 1
 128 1152 l 1
EndSplineSet
Fore
SplineSet
0 0 m 1
 0 1152 l 1
 128 1152 l 1
 128 128 l 1
 640 128 l 1
 640 0 l 1
 0 0 l 1
EndSplineSet
EndChar

StartChar: char77
Encoding: 45 77 44
GlifName: char77
Width: 768
Flags: HW
HStem: 0 21G<0 128 512.957 640> 1132 20G<0 111 529 640>
VStem: 0 128<0 921> 513 127<0 927>
LayerCount: 2
Back
SplineSet
640 1152 m 1
 640 0 l 1
 512 0 l 1
 512 896 l 1
 384 896 l 1
 384 1024 l 1
 512 1024 l 1
 512 1152 l 1
 640 1152 l 1
128 1024 m 1
 256 1024 l 1
 256 896 l 1
 128 896 l 1
 128 0 l 1
 0 0 l 1
 0 1152 l 1
 128 1152 l 1
 128 1024 l 1
384 896 m 1
 384 768 l 1
 256 768 l 1
 256 896 l 1
 384 896 l 1
EndSplineSet
Fore
SplineSet
0 0 m 1
 0 1152 l 1
 91 1152 l 1
 320 923 l 1
 549 1152 l 1
 640 1152 l 1
 640 0 l 1
 512 0 l 1
 512 933 l 1
 320 741 l 1
 128 933 l 1
 128 0 l 1
 0 0 l 1
EndSplineSet
EndChar

StartChar: char78
Encoding: 46 78 45
GlifName: char78
Width: 768
Flags: HW
HStem: 0 21G<0 128 512 640.017> 1132 20G<0 111>
VStem: 0 128<0 933> 512 128<0 549 731 1152>
LayerCount: 2
Back
SplineSet
640 1152 m 1
 640 0 l 1
 512 0 l 1
 512 640 l 1
 384 640 l 1
 384 768 l 1
 256 768 l 1
 256 896 l 1
 128 896 l 1
 128 0 l 1
 0 0 l 1
 0 1152 l 1
 128 1152 l 1
 128 1024 l 1
 256 1024 l 1
 256 896 l 1
 384 896 l 1
 384 768 l 1
 512 768 l 1
 512 1152 l 1
 640 1152 l 1
EndSplineSet
Fore
SplineSet
0 0 m 1
 0 1152 l 1
 91 1152 l 1
 512 731 l 1
 512 1152 l 1
 640 1152 l 1
 640 0 l 1
 512 0 l 1
 512 549 l 1
 128 933 l 1
 128 0 l 1
 0 0 l 1
EndSplineSet
EndChar

StartChar: char79
Encoding: 47 79 46
GlifName: char79
Width: 768
Flags: HW
HStem: 0 128<219 421> 1024 128<219 421>
VStem: 0 128<219 933> 512 128<219 933>
LayerCount: 2
Back
SplineSet
512 1024 m 1
 128 1024 l 1
 128 1152 l 1
 512 1152 l 1
 512 1024 l 1
512 1024 m 1
 640 1024 l 1
 640 128 l 1
 512 128 l 1
 512 1024 l 1
128 1024 m 1
 128 128 l 1
 0 128 l 1
 0 1024 l 1
 128 1024 l 1
512 128 m 1
 512 0 l 1
 128 0 l 1
 128 128 l 1
 512 128 l 1
EndSplineSet
Fore
SplineSet
128 219 m 1
 219 128 l 1
 421 128 l 1
 512 219 l 1
 512 933 l 1
 421 1024 l 1
 219 1024 l 1
 128 933 l 1
 128 219 l 1
165 0 m 1
 0 165 l 1
 0 987 l 1
 165 1152 l 1
 475 1152 l 1
 640 987 l 1
 640 165 l 1
 475 0 l 1
 165 0 l 1
EndSplineSet
EndChar

StartChar: char80
Encoding: 48 80 47
GlifName: char80
Width: 768
Flags: HW
HStem: 0 21G<0 128> 512 128<128 421> 1024 128<128 421>
VStem: 0 128<0 512 640 1024> 512 128<731 933>
LayerCount: 2
Back
SplineSet
512 1024 m 1
 128 1024 l 1
 128 640 l 1
 512 640 l 1
 512 1024 l 1
0 1152 m 1
 512 1152 l 1
 512 1024 l 1
 640 1024 l 1
 640 640 l 1
 512 640 l 1
 512 512 l 1
 128 512 l 1
 128 0 l 1
 0 0 l 1
 0 1152 l 1
EndSplineSet
Fore
SplineSet
128 640 m 1
 421 640 l 1
 512 731 l 1
 512 933 l 1
 421 1024 l 1
 128 1024 l 1
 128 640 l 1
0 0 m 1
 0 1152 l 1
 475 1152 l 1
 640 987 l 1
 640 677 l 1
 475 512 l 1
 128 512 l 1
 128 0 l 1
 0 0 l 1
EndSplineSet
EndChar

StartChar: char81
Encoding: 49 81 48
GlifName: char81
Width: 768
Flags: HW
HStem: -256 21G<512 640> 0 128<219 421> 1024 128<219 421>
VStem: 0 128<219 933> 512 128<-256 -91 219 933>
LayerCount: 2
Back
SplineSet
512 1024 m 1
 128 1024 l 1
 128 1152 l 1
 512 1152 l 1
 512 1024 l 1
512 1024 m 1
 640 1024 l 1
 640 128 l 1
 512 128 l 1
 512 1024 l 1
128 1024 m 1
 128 128 l 1
 0 128 l 1
 0 1024 l 1
 128 1024 l 1
512 128 m 1
 512 0 l 1
 128 0 l 1
 128 128 l 1
 512 128 l 1
512 0 m 1
 640 0 l 1
 640 -256 l 1
 512 -256 l 1
 512 0 l 1
EndSplineSet
Fore
SplineSet
219 128 m 1
 421 128 l 1
 512 219 l 1
 512 933 l 1
 421 1024 l 1
 219 1024 l 1
 128 933 l 1
 128 219 l 1
 219 128 l 1
165 0 m 1
 0 165 l 1
 0 987 l 1
 165 1152 l 1
 475 1152 l 1
 640 987 l 1
 640 165 l 1
 539 64 l 1
 640 -37 l 1
 640 -256 l 1
 512 -256 l 1
 512 -91 l 1
 421 0 l 1
 165 0 l 1
EndSplineSet
EndChar

StartChar: char82
Encoding: 50 82 49
GlifName: char82
Width: 768
Flags: HW
HStem: 0 21G<0 128 512 640> 512 128<128 421> 1024 128<128 421>
VStem: 0 128<0 512 640 1024> 512 128<0 421 731 933>
LayerCount: 2
Back
SplineSet
512 1024 m 1
 128 1024 l 1
 128 640 l 1
 512 640 l 1
 512 1024 l 1
0 1152 m 1
 512 1152 l 1
 512 1024 l 1
 640 1024 l 1
 640 640 l 1
 512 640 l 1
 512 512 l 1
 128 512 l 1
 128 0 l 1
 0 0 l 1
 0 1152 l 1
512 512 m 1
 640 512 l 1
 640 0 l 1
 512 0 l 1
 512 512 l 1
EndSplineSet
Fore
SplineSet
128 640 m 1
 421 640 l 1
 512 731 l 1
 512 933 l 1
 421 1024 l 1
 128 1024 l 1
 128 640 l 1
0 0 m 1
 0 1152 l 1
 475 1152 l 1
 640 987 l 1
 640 677 l 1
 539 576 l 1
 640 475 l 1
 640 0 l 1
 512 0 l 1
 512 421 l 1
 421 512 l 1
 128 512 l 1
 128 0 l 1
 0 0 l 1
EndSplineSet
EndChar

StartChar: char83
Encoding: 51 83 50
GlifName: char83
Width: 768
Flags: HW
HStem: 0 128<219 421> 512 128<219 421> 896 21G<529 569> 1024 128<219 421>
VStem: 0 128<731 933> 512 128<219 421>
LayerCount: 2
Back
SplineSet
0 128 m 1
 0 256 l 1
 128 256 l 1
 128 128 l 1
 0 128 l 1
512 1024 m 1
 128 1024 l 1
 128 1152 l 1
 512 1152 l 1
 512 1024 l 1
512 1024 m 1
 640 1024 l 1
 640 896 l 1
 512 896 l 1
 512 1024 l 1
128 1024 m 1
 128 640 l 1
 0 640 l 1
 0 1024 l 1
 128 1024 l 1
512 512 m 1
 128 512 l 1
 128 640 l 1
 512 640 l 1
 512 512 l 1
512 512 m 1
 640 512 l 1
 640 128 l 1
 512 128 l 1
 512 512 l 1
512 128 m 1
 512 0 l 1
 128 0 l 1
 128 128 l 1
 512 128 l 1
EndSplineSet
Fore
SplineSet
165 0 m 1
 0 165 l 1
 91 256 l 1
 219 128 l 1
 421 128 l 1
 512 219 l 1
 512 421 l 1
 421 512 l 1
 165 512 l 1
 0 677 l 1
 0 987 l 1
 165 1152 l 1
 475 1152 l 1
 640 987 l 1
 549 896 l 1
 421 1024 l 1
 219 1024 l 1
 128 933 l 1
 128 731 l 1
 219 640 l 1
 475 640 l 1
 640 475 l 1
 640 165 l 1
 475 0 l 1
 165 0 l 1
EndSplineSet
EndChar

StartChar: char84
Encoding: 52 84 51
GlifName: char84
Width: 768
Flags: HW
HStem: 0 21G<256 384> 1024 128<0 256 384 640>
VStem: 256 128<0 1024>
LayerCount: 2
Back
SplineSet
0 1024 m 1
 0 1152 l 1
 640 1152 l 1
 640 1024 l 1
 384 1024 l 1
 384 0 l 1
 256 0 l 1
 256 1024 l 1
 0 1024 l 1
EndSplineSet
Fore
SplineSet
256 0 m 1
 256 1024 l 1
 0 1024 l 1
 0 1152 l 1
 640 1152 l 1
 640 1024 l 1
 384 1024 l 1
 384 0 l 1
 256 0 l 1
EndSplineSet
EndChar

StartChar: char85
Encoding: 53 85 52
GlifName: char85
Width: 768
Flags: HW
HStem: 0 128<219 421> 1132 20G<0 128 512 640>
VStem: 0 128<219 1152> 512 128<219 1152>
LayerCount: 2
Back
SplineSet
640 1152 m 1
 640 128 l 1
 512 128 l 1
 512 1152 l 1
 640 1152 l 1
128 1152 m 1
 128 128 l 1
 0 128 l 1
 0 1152 l 1
 128 1152 l 1
512 128 m 1
 512 0 l 1
 128 0 l 1
 128 128 l 1
 512 128 l 1
EndSplineSet
Fore
SplineSet
165 0 m 1
 0 165 l 1
 0 1152 l 1
 128 1152 l 1
 128 219 l 1
 219 128 l 1
 421 128 l 1
 512 219 l 1
 512 1152 l 1
 640 1152 l 1
 640 165 l 1
 475 0 l 1
 165 0 l 1
EndSplineSet
EndChar

StartChar: char86
Encoding: 54 86 53
GlifName: char86
Width: 768
Flags: HW
HStem: 0 21G<280.454 367> 1132 20G<0 128 512 640>
VStem: 0 128<347 1152> 512 128<347 1152>
LayerCount: 2
Back
SplineSet
640 1152 m 1
 640 256 l 1
 512 256 l 1
 512 1152 l 1
 640 1152 l 1
128 1152 m 1
 128 256 l 1
 0 256 l 1
 0 1152 l 1
 128 1152 l 1
512 256 m 1
 512 128 l 1
 384 128 l 1
 384 256 l 1
 512 256 l 1
128 256 m 1
 256 256 l 1
 256 128 l 1
 128 128 l 1
 128 256 l 1
384 128 m 1
 384 0 l 1
 256 0 l 1
 256 128 l 1
 384 128 l 1
EndSplineSet
Fore
SplineSet
293 0 m 1
 0 293 l 1
 0 1152 l 1
 128 1152 l 1
 128 347 l 1
 320 155 l 1
 512 347 l 1
 512 1152 l 1
 640 1152 l 1
 640 293 l 1
 347 0 l 1
 293 0 l 1
EndSplineSet
EndChar

StartChar: char87
Encoding: 55 87 54
GlifName: char87
Width: 768
Flags: HW
HStem: 0 21G<0 111 529 640> 1132 20G<0 128 512 640>
VStem: 0 128<219 1152> 512 128<219 1152>
LayerCount: 2
Back
SplineSet
640 1152 m 1
 640 0 l 1
 512 0 l 1
 512 128 l 1
 384 128 l 1
 384 256 l 1
 256 256 l 1
 256 384 l 1
 384 384 l 1
 384 256 l 1
 512 256 l 1
 512 1152 l 1
 640 1152 l 1
128 1152 m 1
 128 256 l 1
 256 256 l 1
 256 128 l 1
 128 128 l 1
 128 0 l 1
 0 0 l 1
 0 1152 l 1
 128 1152 l 1
EndSplineSet
Fore
SplineSet
0 0 m 1
 0 1152 l 1
 128 1152 l 1
 128 219 l 1
 320 411 l 1
 512 219 l 1
 512 1152 l 1
 640 1152 l 1
 640 0 l 1
 549 0 l 1
 320 229 l 1
 91 0 l 1
 0 0 l 1
EndSplineSet
EndChar

StartChar: char88
Encoding: 56 88 55
GlifName: char88
Width: 768
Flags: HW
HStem: 0 21G<0 128 512 640> 1132 20G<0 128 512 640>
VStem: 0 128<0 293 859 1152> 512 128<0 293 859 1152>
LayerCount: 2
Back
SplineSet
640 1152 m 1
 640 768 l 1
 512 768 l 1
 512 1152 l 1
 640 1152 l 1
128 1152 m 1
 128 768 l 1
 0 768 l 1
 0 1152 l 1
 128 1152 l 1
512 768 m 1
 512 640 l 1
 384 640 l 1
 384 768 l 1
 512 768 l 1
128 768 m 1
 256 768 l 1
 256 640 l 1
 128 640 l 1
 128 768 l 1
384 640 m 1
 384 512 l 1
 256 512 l 1
 256 640 l 1
 384 640 l 1
384 512 m 1
 512 512 l 1
 512 384 l 1
 384 384 l 1
 384 512 l 1
256 512 m 1
 256 384 l 1
 128 384 l 1
 128 512 l 1
 256 512 l 1
512 384 m 1
 640 384 l 1
 640 0 l 1
 512 0 l 1
 512 384 l 1
128 384 m 1
 128 0 l 1
 0 0 l 1
 0 384 l 1
 128 384 l 1
EndSplineSet
Fore
SplineSet
0 0 m 1
 0 347 l 1
 229 576 l 1
 0 805 l 1
 0 1152 l 1
 128 1152 l 1
 128 859 l 1
 320 667 l 1
 512 859 l 1
 512 1152 l 1
 640 1152 l 1
 640 805 l 1
 411 576 l 1
 640 347 l 1
 640 0 l 1
 512 0 l 1
 512 293 l 1
 320 485 l 1
 128 293 l 1
 128 0 l 1
 0 0 l 1
EndSplineSet
EndChar

StartChar: char89
Encoding: 57 89 56
GlifName: char89
Width: 768
Flags: HW
HStem: 0 21G<256 384> 1132 20G<0 128 512 640>
VStem: 0 128<859 1152> 256 128<0 549> 512 128<859 1152>
CounterMasks: 1 38
LayerCount: 2
Back
SplineSet
640 1152 m 1
 640 768 l 1
 512 768 l 1
 512 1152 l 1
 640 1152 l 1
128 1152 m 1
 128 768 l 1
 0 768 l 1
 0 1152 l 1
 128 1152 l 1
512 768 m 1
 512 640 l 1
 384 640 l 1
 384 768 l 1
 512 768 l 1
128 768 m 1
 256 768 l 1
 256 640 l 1
 128 640 l 1
 128 768 l 1
384 640 m 1
 384 0 l 1
 256 0 l 1
 256 640 l 1
 384 640 l 1
EndSplineSet
Fore
SplineSet
256 0 m 1
 256 549 l 1
 0 805 l 1
 0 1152 l 1
 128 1152 l 1
 128 859 l 1
 320 667 l 1
 512 859 l 1
 512 1152 l 1
 640 1152 l 1
 640 805 l 1
 384 549 l 1
 384 0 l 1
 256 0 l 1
EndSplineSet
EndChar

StartChar: char90
Encoding: 58 90 57
GlifName: char90
Width: 768
Flags: HW
HStem: 0 128<128 640> 1024 128<0 512>
VStem: 0 128<128 293> 512 128<859 1024>
LayerCount: 2
Back
SplineSet
0 1024 m 1
 0 1152 l 1
 640 1152 l 1
 640 768 l 1
 512 768 l 1
 512 1024 l 1
 0 1024 l 1
512 768 m 1
 512 640 l 1
 384 640 l 1
 384 768 l 1
 512 768 l 1
384 640 m 1
 384 512 l 1
 256 512 l 1
 256 640 l 1
 384 640 l 1
256 512 m 1
 256 384 l 1
 128 384 l 1
 128 512 l 1
 256 512 l 1
128 384 m 1
 128 128 l 1
 640 128 l 1
 640 0 l 1
 0 0 l 1
 0 384 l 1
 128 384 l 1
EndSplineSet
Fore
SplineSet
0 0 m 1
 0 347 l 1
 512 859 l 1
 512 1024 l 1
 0 1024 l 1
 0 1152 l 1
 640 1152 l 1
 640 805 l 1
 128 293 l 1
 128 128 l 1
 640 128 l 1
 640 0 l 1
 0 0 l 1
EndSplineSet
EndChar

StartChar: char91
Encoding: 59 91 58
GlifName: char91
Width: 768
Flags: HW
LayerCount: 2
Back
SplineSet
512 1024 m 1
 256 1024 l 1
 256 -128 l 1
 512 -128 l 1
 512 -256 l 1
 128 -256 l 1
 128 1152 l 1
 512 1152 l 1
 512 1024 l 1
EndSplineSet
Fore
SplineSet
128 -256 m 5
 128 1152 l 1
 512 1152 l 1
 512 1024 l 1
 256 1024 l 1
 256 -128 l 1
 512 -128 l 1
 512 -256 l 1
 128 -256 l 5
EndSplineSet
EndChar

StartChar: char92
Encoding: 60 92 59
GlifName: char92
Width: 768
Flags: HW
LayerCount: 2
Back
SplineSet
0 768 m 1
 0 896 l 1
 128 896 l 1
 128 768 l 1
 0 768 l 1
128 768 m 1
 256 768 l 1
 256 640 l 1
 128 640 l 1
 128 768 l 1
256 640 m 1
 384 640 l 1
 384 512 l 1
 256 512 l 1
 256 640 l 1
384 512 m 1
 512 512 l 1
 512 384 l 1
 384 384 l 1
 384 512 l 1
512 384 m 1
 640 384 l 1
 640 256 l 1
 512 256 l 1
 512 384 l 1
EndSplineSet
Fore
SplineSet
549 256 m 1
 0 805 l 1
 91 896 l 1
 640 347 l 1
 549 256 l 1
EndSplineSet
EndChar

StartChar: char93
Encoding: 61 93 60
GlifName: char93
Width: 768
Flags: HW
LayerCount: 2
Back
SplineSet
128 1024 m 1
 128 1152 l 1
 512 1152 l 1
 512 -256 l 1
 128 -256 l 1
 128 -128 l 1
 384 -128 l 1
 384 1024 l 1
 128 1024 l 1
EndSplineSet
Fore
SplineSet
128 -256 m 1
 128 -128 l 1
 384 -128 l 1
 384 1024 l 1
 128 1024 l 1
 128 1152 l 1
 512 1152 l 1
 512 -256 l 1
 128 -256 l 1
EndSplineSet
EndChar

StartChar: char94
Encoding: 62 94 61
GlifName: char94
Width: 768
Flags: HW
LayerCount: 2
Back
SplineSet
0 768 m 1
 0 896 l 1
 128 896 l 1
 128 1024 l 1
 256 1024 l 1
 256 1152 l 1
 384 1152 l 1
 384 1024 l 1
 256 1024 l 1
 256 896 l 1
 128 896 l 1
 128 768 l 1
 0 768 l 1
384 1024 m 1
 512 1024 l 1
 512 896 l 1
 384 896 l 1
 384 1024 l 1
512 896 m 1
 640 896 l 1
 640 768 l 1
 512 768 l 1
 512 896 l 1
EndSplineSet
Fore
SplineSet
91 768 m 1
 0 859 l 1
 320 1179 l 1
 640 859 l 1
 549 768 l 1
 320 997 l 1
 91 768 l 1
EndSplineSet
EndChar

StartChar: char95
Encoding: 63 95 62
GlifName: char95
Width: 768
Flags: HW
LayerCount: 2
Back
SplineSet
0 0 m 1
 0 128 l 1
 640 128 l 1
 640 0 l 1
 0 0 l 1
EndSplineSet
Fore
SplineSet
0 0 m 5
 0 128 l 5
 640 128 l 5
 640 0 l 5
 0 0 l 5
EndSplineSet
EndChar

StartChar: char96
Encoding: 64 96 63
GlifName: char96
Width: 768
Flags: HW
LayerCount: 2
Back
SplineSet
128 1024 m 1
 128 1152 l 1
 256 1152 l 1
 256 1024 l 1
 128 1024 l 1
256 1024 m 1
 384 1024 l 1
 384 896 l 1
 256 896 l 1
 256 1024 l 1
384 896 m 1
 512 896 l 1
 512 768 l 1
 384 768 l 1
 384 896 l 1
EndSplineSet
Fore
SplineSet
421 768 m 1
 128 1061 l 1
 219 1152 l 1
 512 859 l 1
 421 768 l 1
EndSplineSet
EndChar

StartChar: char97
Encoding: 65 97 64
GlifName: char97
Width: 768
Flags: HW
LayerCount: 2
Back
SplineSet
0 640 m 1
 0 768 l 1
 128 768 l 1
 128 896 l 1
 512 896 l 1
 512 768 l 1
 128 768 l 1
 128 640 l 1
 0 640 l 1
512 768 m 1
 640 768 l 1
 640 0 l 1
 128 0 l 1
 128 128 l 1
 0 128 l 1
 0 384 l 1
 128 384 l 1
 128 512 l 1
 512 512 l 1
 512 768 l 1
512 384 m 1
 128 384 l 1
 128 128 l 1
 512 128 l 1
 512 384 l 1
EndSplineSet
Fore
SplineSet
128 219 m 1
 219 128 l 1
 512 128 l 1
 512 384 l 1
 219 384 l 1
 128 293 l 1
 128 219 l 1
165 0 m 1
 0 165 l 1
 0 347 l 1
 165 512 l 1
 512 512 l 1
 512 677 l 1
 421 768 l 1
 219 768 l 1
 91 640 l 1
 0 731 l 1
 165 896 l 1
 475 896 l 1
 640 731 l 1
 640 0 l 1
 165 0 l 1
EndSplineSet
EndChar

StartChar: char98
Encoding: 66 98 65
GlifName: char98
Width: 768
Flags: HW
LayerCount: 2
Back
SplineSet
128 1152 m 1
 128 896 l 1
 512 896 l 1
 512 768 l 1
 128 768 l 1
 128 128 l 1
 512 128 l 1
 512 768 l 1
 640 768 l 1
 640 128 l 1
 512 128 l 1
 512 0 l 1
 0 0 l 1
 0 1152 l 1
 128 1152 l 1
EndSplineSet
Fore
SplineSet
128 128 m 5
 421 128 l 1
 512 219 l 1
 512 677 l 1
 421 768 l 1
 128 768 l 1
 128 128 l 5
0 0 m 1
 0 1152 l 1
 128 1152 l 1
 128 896 l 1
 475 896 l 1
 640 731 l 1
 640 165 l 1
 475 0 l 1
 0 0 l 1
EndSplineSet
EndChar

StartChar: char99
Encoding: 67 99 66
GlifName: char99
Width: 768
Flags: HW
LayerCount: 2
Back
SplineSet
512 768 m 1
 128 768 l 1
 128 896 l 1
 512 896 l 1
 512 768 l 1
512 768 m 1
 640 768 l 1
 640 640 l 1
 512 640 l 1
 512 768 l 1
128 768 m 1
 128 128 l 1
 0 128 l 1
 0 768 l 1
 128 768 l 1
512 128 m 1
 512 256 l 1
 640 256 l 1
 640 128 l 1
 512 128 l 1
512 128 m 1
 512 0 l 1
 128 0 l 1
 128 128 l 1
 512 128 l 1
EndSplineSet
Fore
SplineSet
165 0 m 1
 0 165 l 1
 0 731 l 1
 165 896 l 1
 475 896 l 1
 640 731 l 1
 549 640 l 1
 421 768 l 1
 219 768 l 1
 128 677 l 1
 128 219 l 1
 219 128 l 1
 421 128 l 1
 549 256 l 1
 640 165 l 1
 475 0 l 1
 165 0 l 1
EndSplineSet
EndChar

StartChar: char100
Encoding: 68 100 67
GlifName: char100
Width: 768
Flags: HW
LayerCount: 2
Back
SplineSet
640 1152 m 1
 640 0 l 1
 128 0 l 1
 128 128 l 1
 0 128 l 1
 0 768 l 1
 128 768 l 1
 128 896 l 1
 512 896 l 1
 512 1152 l 1
 640 1152 l 1
512 768 m 1
 128 768 l 1
 128 128 l 1
 512 128 l 1
 512 768 l 1
EndSplineSet
Fore
SplineSet
219 128 m 1
 512 128 l 1
 512 768 l 1
 219 768 l 1
 128 677 l 1
 128 219 l 1
 219 128 l 1
165 0 m 1
 0 165 l 1
 0 731 l 1
 165 896 l 1
 512 896 l 1
 512 1152 l 1
 640 1152 l 1
 640 0 l 1
 165 0 l 1
EndSplineSet
EndChar

StartChar: char101
Encoding: 69 101 68
GlifName: char101
Width: 768
Flags: HW
LayerCount: 2
Back
SplineSet
512 768 m 1
 128 768 l 1
 128 896 l 1
 512 896 l 1
 512 768 l 1
512 768 m 1
 640 768 l 1
 640 384 l 1
 128 384 l 1
 128 128 l 1
 0 128 l 1
 0 768 l 1
 128 768 l 1
 128 512 l 1
 512 512 l 1
 512 768 l 1
512 128 m 1
 512 256 l 1
 640 256 l 1
 640 128 l 1
 512 128 l 1
512 128 m 1
 512 0 l 1
 128 0 l 1
 128 128 l 1
 512 128 l 1
EndSplineSet
Fore
SplineSet
128 512 m 1
 512 512 l 1
 512 677 l 1
 421 768 l 1
 219 768 l 1
 128 677 l 1
 128 512 l 1
165 0 m 1
 0 165 l 1
 0 731 l 1
 165 896 l 1
 475 896 l 1
 640 731 l 1
 640 384 l 1
 128 384 l 1
 128 219 l 1
 219 128 l 1
 421 128 l 1
 549 256 l 1
 640 165 l 1
 475 0 l 1
 165 0 l 1
EndSplineSet
EndChar

StartChar: char102
Encoding: 70 102 69
GlifName: char102
Width: 768
Flags: HW
LayerCount: 2
Back
SplineSet
0 768 m 1
 0 896 l 1
 128 896 l 1
 128 1024 l 1
 256 1024 l 1
 256 1152 l 1
 640 1152 l 1
 640 1024 l 1
 256 1024 l 1
 256 896 l 1
 512 896 l 1
 512 768 l 1
 256 768 l 1
 256 0 l 1
 128 0 l 1
 128 768 l 1
 0 768 l 1
EndSplineSet
Fore
SplineSet
128 0 m 1
 128 768 l 1
 0 768 l 1
 0 896 l 1
 128 896 l 1
 128 987 l 1
 293 1152 l 1
 640 1152 l 1
 640 1024 l 1
 347 1024 l 1
 256 933 l 1
 256 896 l 1
 512 896 l 1
 512 768 l 1
 256 768 l 1
 256 0 l 1
 128 0 l 1
EndSplineSet
EndChar

StartChar: char103
Encoding: 71 103 70
GlifName: char103
Width: 768
Flags: HW
LayerCount: 2
Back
SplineSet
128 -256 m 1
 128 -128 l 1
 512 -128 l 1
 512 0 l 1
 128 0 l 1
 128 128 l 1
 0 128 l 1
 0 768 l 1
 128 768 l 1
 128 896 l 1
 512 896 l 1
 512 768 l 1
 128 768 l 1
 128 128 l 1
 512 128 l 1
 512 768 l 1
 640 768 l 1
 640 -128 l 1
 512 -128 l 1
 512 -256 l 1
 128 -256 l 1
EndSplineSet
Fore
SplineSet
128 219 m 1
 219 128 l 1
 512 128 l 1
 512 677 l 1
 421 768 l 1
 219 768 l 1
 128 677 l 1
 128 219 l 1
128 -256 m 1
 128 -128 l 1
 421 -128 l 1
 512 -37 l 1
 512 0 l 1
 165 0 l 1
 0 165 l 1
 0 731 l 1
 165 896 l 1
 475 896 l 1
 640 731 l 1
 640 -91 l 1
 475 -256 l 1
 128 -256 l 1
EndSplineSet
EndChar

StartChar: char104
Encoding: 72 104 71
GlifName: char104
Width: 768
Flags: HW
LayerCount: 2
Back
SplineSet
128 1152 m 1
 128 896 l 1
 512 896 l 1
 512 768 l 1
 128 768 l 1
 128 0 l 1
 0 0 l 1
 0 1152 l 1
 128 1152 l 1
512 768 m 1
 640 768 l 1
 640 0 l 1
 512 0 l 1
 512 768 l 1
EndSplineSet
Fore
SplineSet
0 0 m 1
 0 1152 l 1
 128 1152 l 1
 128 896 l 1
 475 896 l 1
 640 731 l 1
 640 0 l 1
 512 0 l 1
 512 677 l 1
 421 768 l 1
 128 768 l 1
 128 0 l 1
 0 0 l 1
EndSplineSet
EndChar

StartChar: char105
Encoding: 73 105 72
GlifName: char105
Width: 768
Flags: HW
LayerCount: 2
Back
SplineSet
256 1024 m 1
 256 1152 l 1
 384 1152 l 1
 384 1024 l 1
 256 1024 l 1
0 768 m 1
 0 896 l 1
 384 896 l 1
 384 128 l 1
 640 128 l 1
 640 0 l 1
 0 0 l 1
 0 128 l 1
 256 128 l 1
 256 768 l 1
 0 768 l 1
EndSplineSet
Fore
SplineSet
256 1024 m 1
 256 1152 l 1
 384 1152 l 1
 384 1024 l 1
 256 1024 l 1
0 0 m 1
 0 128 l 1
 256 128 l 1
 256 768 l 1
 0 768 l 1
 0 896 l 1
 384 896 l 1
 384 128 l 1
 640 128 l 1
 640 0 l 1
 0 0 l 1
EndSplineSet
EndChar

StartChar: char106
Encoding: 74 106 73
GlifName: char106
Width: 768
Flags: HW
LayerCount: 2
Back
SplineSet
512 1024 m 1
 512 1152 l 1
 640 1152 l 1
 640 1024 l 1
 512 1024 l 1
256 768 m 1
 256 896 l 1
 640 896 l 1
 640 -128 l 1
 512 -128 l 1
 512 768 l 1
 256 768 l 1
0 -128 m 1
 0 0 l 1
 128 0 l 1
 128 -128 l 1
 0 -128 l 1
512 -128 m 1
 512 -256 l 1
 128 -256 l 1
 128 -128 l 1
 512 -128 l 1
EndSplineSet
Fore
SplineSet
512 1024 m 1
 512 1152 l 1
 640 1152 l 1
 640 1024 l 1
 512 1024 l 1
165 -256 m 1
 0 -91 l 1
 91 0 l 1
 219 -128 l 1
 421 -128 l 1
 512 -37 l 1
 512 768 l 1
 256 768 l 1
 256 896 l 1
 640 896 l 1
 640 -91 l 1
 475 -256 l 1
 165 -256 l 1
EndSplineSet
EndChar

StartChar: char107
Encoding: 75 107 74
GlifName: char107
Width: 768
Flags: HW
LayerCount: 2
Back
SplineSet
128 1152 m 1
 128 512 l 1
 256 512 l 1
 256 640 l 1
 384 640 l 1
 384 768 l 1
 512 768 l 1
 512 896 l 1
 640 896 l 1
 640 768 l 1
 512 768 l 1
 512 640 l 1
 384 640 l 1
 384 512 l 1
 256 512 l 1
 256 384 l 1
 128 384 l 1
 128 0 l 1
 0 0 l 1
 0 1152 l 1
 128 1152 l 1
256 384 m 1
 384 384 l 1
 384 256 l 1
 256 256 l 1
 256 384 l 1
384 256 m 1
 512 256 l 1
 512 128 l 1
 384 128 l 1
 384 256 l 1
512 128 m 1
 640 128 l 1
 640 0 l 1
 512 0 l 1
 512 128 l 1
EndSplineSet
Fore
SplineSet
0 0 m 5
 0 1152 l 1
 128 1152 l 1
 128 475 l 1
 549 896 l 1
 640 805 l 1
 283 448 l 1
 640 91 l 1
 549 0 l 1
 128 421 l 1
 128 0 l 1
 0 0 l 5
EndSplineSet
EndChar

StartChar: char108
Encoding: 76 108 75
GlifName: char108
Width: 768
Flags: HW
LayerCount: 2
Back
SplineSet
0 1024 m 1
 0 1152 l 1
 384 1152 l 1
 384 128 l 1
 640 128 l 1
 640 0 l 1
 0 0 l 1
 0 128 l 1
 256 128 l 1
 256 1024 l 1
 0 1024 l 1
EndSplineSet
Fore
SplineSet
0 0 m 1
 0 128 l 1
 256 128 l 1
 256 1024 l 1
 0 1024 l 1
 0 1152 l 1
 384 1152 l 1
 384 128 l 1
 640 128 l 1
 640 0 l 1
 0 0 l 1
EndSplineSet
EndChar

StartChar: char109
Encoding: 77 109 76
GlifName: char109
Width: 768
Flags: HW
LayerCount: 2
Back
SplineSet
512 768 m 1
 384 768 l 1
 384 896 l 1
 512 896 l 1
 512 768 l 1
512 768 m 1
 640 768 l 1
 640 0 l 1
 512 0 l 1
 512 768 l 1
384 768 m 1
 384 0 l 1
 256 0 l 1
 256 768 l 1
 128 768 l 1
 128 896 l 1
 256 896 l 1
 256 768 l 1
 384 768 l 1
128 768 m 1
 128 0 l 1
 0 0 l 1
 0 768 l 1
 128 768 l 1
EndSplineSet
Fore
SplineSet
0 0 m 1
 0 731 l 1
 165 896 l 1
 219 896 l 1
 320 795 l 1
 421 896 l 1
 475 896 l 1
 640 731 l 1
 640 0 l 1
 512 0 l 1
 512 677 l 1
 448 741 l 1
 384 677 l 1
 384 0 l 1
 256 0 l 1
 256 677 l 1
 192 741 l 1
 128 677 l 1
 128 0 l 1
 0 0 l 1
EndSplineSet
EndChar

StartChar: char110
Encoding: 78 110 77
GlifName: char110
Width: 768
Flags: HW
LayerCount: 2
Back
SplineSet
512 768 m 1
 128 768 l 1
 128 0 l 1
 0 0 l 1
 0 896 l 1
 512 896 l 1
 512 768 l 1
512 768 m 1
 640 768 l 1
 640 0 l 1
 512 0 l 1
 512 768 l 1
EndSplineSet
Fore
SplineSet
0 0 m 1
 0 896 l 1
 475 896 l 1
 640 731 l 1
 640 0 l 1
 512 0 l 1
 512 677 l 1
 421 768 l 1
 128 768 l 1
 128 0 l 1
 0 0 l 1
EndSplineSet
EndChar

StartChar: char111
Encoding: 79 111 78
GlifName: char111
Width: 768
Flags: HW
HStem: 0 128<219 421> 768 128<219 421>
VStem: 0 128<219 677> 512 128<219 677>
LayerCount: 2
Back
SplineSet
512 768 m 1
 128 768 l 1
 128 896 l 1
 512 896 l 1
 512 768 l 1
512 768 m 1
 640 768 l 1
 640 128 l 1
 512 128 l 1
 512 768 l 1
128 768 m 1
 128 128 l 1
 0 128 l 1
 0 768 l 1
 128 768 l 1
512 128 m 1
 512 0 l 1
 128 0 l 1
 128 128 l 1
 512 128 l 1
EndSplineSet
Fore
SplineSet
219 128 m 1
 421 128 l 1
 512 219 l 1
 512 677 l 1
 421 768 l 1
 219 768 l 1
 128 677 l 1
 128 219 l 1
 219 128 l 1
165 0 m 1
 0 165 l 1
 0 731 l 1
 165 896 l 1
 475 896 l 1
 640 731 l 1
 640 165 l 1
 475 0 l 1
 165 0 l 1
EndSplineSet
EndChar

StartChar: char112
Encoding: 80 112 79
GlifName: char112
Width: 768
Flags: HW
LayerCount: 2
Back
SplineSet
512 768 m 1
 128 768 l 1
 128 128 l 1
 512 128 l 1
 512 768 l 1
0 896 m 1
 512 896 l 1
 512 768 l 1
 640 768 l 1
 640 128 l 1
 512 128 l 1
 512 0 l 1
 128 0 l 1
 128 -256 l 1
 0 -256 l 1
 0 896 l 1
EndSplineSet
Fore
SplineSet
128 128 m 1
 421 128 l 1
 512 219 l 1
 512 677 l 1
 421 768 l 1
 128 768 l 1
 128 128 l 1
0 -256 m 1
 0 896 l 1
 475 896 l 1
 640 731 l 1
 640 165 l 1
 475 0 l 1
 128 0 l 1
 128 -256 l 1
 0 -256 l 1
EndSplineSet
EndChar

StartChar: char113
Encoding: 81 113 80
GlifName: char113
Width: 768
Flags: HW
LayerCount: 2
Back
SplineSet
128 896 m 1
 640 896 l 1
 640 -256 l 1
 512 -256 l 1
 512 0 l 1
 128 0 l 1
 128 128 l 1
 0 128 l 1
 0 768 l 1
 128 768 l 1
 128 896 l 1
512 768 m 1
 128 768 l 1
 128 128 l 1
 512 128 l 1
 512 768 l 1
EndSplineSet
Fore
SplineSet
128 219 m 1
 219 128 l 1
 512 128 l 1
 512 768 l 1
 219 768 l 1
 128 677 l 1
 128 219 l 1
165 0 m 1
 0 165 l 1
 0 731 l 1
 165 896 l 1
 640 896 l 1
 640 -256 l 1
 512 -256 l 1
 512 0 l 1
 165 0 l 1
EndSplineSet
EndChar

StartChar: char114
Encoding: 82 114 81
GlifName: char114
Width: 768
Flags: HW
LayerCount: 2
Back
SplineSet
512 768 m 1
 128 768 l 1
 128 0 l 1
 0 0 l 1
 0 896 l 1
 512 896 l 1
 512 768 l 1
512 768 m 1
 640 768 l 1
 640 640 l 1
 512 640 l 1
 512 768 l 1
EndSplineSet
Fore
SplineSet
0 0 m 1
 0 896 l 1
 475 896 l 1
 640 731 l 1
 549 640 l 1
 421 768 l 1
 128 768 l 1
 128 0 l 1
 0 0 l 1
EndSplineSet
EndChar

StartChar: char115
Encoding: 83 115 82
GlifName: char115
Width: 768
Flags: HW
LayerCount: 2
Back
SplineSet
0 128 m 1
 0 256 l 1
 128 256 l 1
 128 128 l 1
 0 128 l 1
512 768 m 1
 128 768 l 1
 128 896 l 1
 512 896 l 1
 512 768 l 1
512 768 m 1
 640 768 l 1
 640 640 l 1
 512 640 l 1
 512 768 l 1
128 768 m 1
 128 512 l 1
 0 512 l 1
 0 768 l 1
 128 768 l 1
512 384 m 1
 128 384 l 1
 128 512 l 1
 512 512 l 1
 512 384 l 1
512 384 m 1
 640 384 l 1
 640 128 l 1
 512 128 l 1
 512 384 l 1
512 128 m 1
 512 0 l 1
 128 0 l 1
 128 128 l 1
 512 128 l 1
EndSplineSet
Fore
SplineSet
165 0 m 1
 0 165 l 1
 91 256 l 1
 219 128 l 1
 421 128 l 1
 512 219 l 1
 512 293 l 1
 421 384 l 1
 165 384 l 1
 0 549 l 1
 0 731 l 1
 165 896 l 1
 475 896 l 1
 640 731 l 1
 549 640 l 1
 421 768 l 1
 219 768 l 1
 128 677 l 1
 128 603 l 1
 219 512 l 1
 475 512 l 1
 640 347 l 1
 640 165 l 1
 475 0 l 1
 165 0 l 1
EndSplineSet
EndChar

StartChar: char116
Encoding: 84 116 83
GlifName: char116
Width: 768
Flags: HW
LayerCount: 2
Back
SplineSet
0 768 m 1
 0 896 l 1
 256 896 l 1
 256 1152 l 1
 384 1152 l 1
 384 896 l 1
 640 896 l 1
 640 768 l 1
 384 768 l 1
 384 0 l 1
 256 0 l 1
 256 768 l 1
 0 768 l 1
EndSplineSet
Fore
SplineSet
256 0 m 5
 256 768 l 1
 0 768 l 1
 0 896 l 1
 256 896 l 1
 256 1152 l 1
 384 1152 l 1
 384 896 l 1
 640 896 l 1
 640 768 l 1
 384 768 l 1
 384 0 l 1
 256 0 l 5
EndSplineSet
EndChar

StartChar: char117
Encoding: 85 117 84
GlifName: char117
Width: 768
Flags: HW
LayerCount: 2
Back
SplineSet
640 896 m 1
 640 128 l 1
 512 128 l 1
 512 896 l 1
 640 896 l 1
128 896 m 1
 128 128 l 1
 0 128 l 1
 0 896 l 1
 128 896 l 1
512 128 m 1
 512 0 l 1
 128 0 l 1
 128 128 l 1
 512 128 l 1
EndSplineSet
Fore
SplineSet
165 0 m 5
 0 165 l 1
 0 896 l 1
 128 896 l 1
 128 219 l 1
 219 128 l 1
 421 128 l 1
 512 219 l 1
 512 896 l 1
 640 896 l 1
 640 165 l 1
 475 0 l 1
 165 0 l 5
EndSplineSet
EndChar

StartChar: char118
Encoding: 86 118 85
GlifName: char118
Width: 768
Flags: HW
LayerCount: 2
Back
SplineSet
640 896 m 1
 640 256 l 1
 512 256 l 1
 512 896 l 1
 640 896 l 1
128 896 m 1
 128 256 l 1
 0 256 l 1
 0 896 l 1
 128 896 l 1
512 256 m 1
 512 128 l 1
 384 128 l 1
 384 256 l 1
 512 256 l 1
128 256 m 1
 256 256 l 1
 256 128 l 1
 128 128 l 1
 128 256 l 1
384 128 m 1
 384 0 l 1
 256 0 l 1
 256 128 l 1
 384 128 l 1
EndSplineSet
Fore
SplineSet
293 0 m 1
 0 293 l 1
 0 896 l 1
 128 896 l 1
 128 347 l 1
 320 155 l 1
 512 347 l 1
 512 896 l 1
 640 896 l 1
 640 293 l 1
 347 0 l 1
 293 0 l 1
EndSplineSet
EndChar

StartChar: char119
Encoding: 87 119 86
GlifName: char119
Width: 768
Flags: HW
LayerCount: 2
Back
SplineSet
640 896 m 1
 640 128 l 1
 512 128 l 1
 512 896 l 1
 640 896 l 1
384 896 m 1
 384 128 l 1
 256 128 l 1
 256 896 l 1
 384 896 l 1
128 896 m 1
 128 128 l 1
 0 128 l 1
 0 896 l 1
 128 896 l 1
512 128 m 1
 512 0 l 1
 384 0 l 1
 384 128 l 1
 512 128 l 1
256 128 m 1
 256 0 l 1
 128 0 l 1
 128 128 l 1
 256 128 l 1
EndSplineSet
Fore
SplineSet
0 896 m 1
 0 165 l 1
 165 0 l 1
 219 0 l 1
 320 101 l 1
 421 0 l 1
 475 0 l 1
 640 165 l 1
 640 896 l 1
 512 896 l 1
 512 219 l 1
 448 155 l 1
 384 219 l 1
 384 896 l 1
 256 896 l 1
 256 219 l 1
 192 155 l 1
 128 219 l 1
 128 896 l 1
 0 896 l 1
EndSplineSet
EndChar

StartChar: char120
Encoding: 88 120 87
GlifName: char120
Width: 768
Flags: HW
HStem: 0 21G<0 128 512 640> 876 20G<0 128 512 640>
VStem: 0 128<0 165 731 896> 512 128<0 165 731 896>
LayerCount: 2
Back
SplineSet
640 896 m 1
 640 640 l 1
 512 640 l 1
 512 896 l 1
 640 896 l 1
128 896 m 1
 128 640 l 1
 0 640 l 1
 0 896 l 1
 128 896 l 1
512 640 m 1
 512 512 l 1
 384 512 l 1
 384 640 l 1
 512 640 l 1
128 640 m 1
 256 640 l 1
 256 512 l 1
 128 512 l 1
 128 640 l 1
384 512 m 1
 384 384 l 1
 256 384 l 1
 256 512 l 1
 384 512 l 1
384 384 m 1
 512 384 l 1
 512 256 l 1
 384 256 l 1
 384 384 l 1
256 384 m 1
 256 256 l 1
 128 256 l 1
 128 384 l 1
 256 384 l 1
512 256 m 1
 640 256 l 1
 640 0 l 1
 512 0 l 1
 512 256 l 1
128 256 m 1
 128 0 l 1
 0 0 l 1
 0 256 l 1
 128 256 l 1
EndSplineSet
Fore
SplineSet
0 0 m 1
 0 219 l 1
 229 448 l 1
 0 677 l 1
 0 896 l 1
 128 896 l 1
 128 731 l 1
 320 539 l 1
 512 731 l 1
 512 896 l 1
 640 896 l 1
 640 677 l 1
 411 448 l 1
 640 219 l 1
 640 0 l 1
 512 0 l 1
 512 165 l 1
 320 357 l 1
 128 165 l 1
 128 0 l 1
 0 0 l 1
EndSplineSet
EndChar

StartChar: char121
Encoding: 89 121 88
GlifName: char121
Width: 768
Flags: HW
LayerCount: 2
Back
SplineSet
128 -256 m 1
 128 -128 l 1
 512 -128 l 1
 512 0 l 1
 128 0 l 1
 128 128 l 1
 0 128 l 1
 0 896 l 1
 128 896 l 1
 128 128 l 1
 512 128 l 1
 512 896 l 1
 640 896 l 1
 640 -128 l 1
 512 -128 l 1
 512 -256 l 1
 128 -256 l 1
EndSplineSet
Fore
SplineSet
128 -256 m 1
 128 -128 l 1
 421 -128 l 1
 512 -37 l 1
 512 0 l 1
 165 0 l 1
 0 165 l 1
 0 896 l 1
 128 896 l 1
 128 219 l 1
 219 128 l 1
 512 128 l 1
 512 896 l 1
 640 896 l 1
 640 -91 l 1
 475 -256 l 1
 128 -256 l 1
EndSplineSet
EndChar

StartChar: char122
Encoding: 90 122 89
GlifName: char122
Width: 768
Flags: HW
LayerCount: 2
Back
SplineSet
0 768 m 1
 0 896 l 1
 640 896 l 1
 640 640 l 1
 512 640 l 1
 512 768 l 1
 0 768 l 1
512 640 m 1
 512 512 l 1
 384 512 l 1
 384 640 l 1
 512 640 l 1
384 512 m 1
 384 384 l 1
 256 384 l 1
 256 512 l 1
 384 512 l 1
256 384 m 1
 256 256 l 1
 128 256 l 1
 128 384 l 1
 256 384 l 1
128 256 m 1
 128 128 l 1
 640 128 l 1
 640 0 l 1
 0 0 l 1
 0 256 l 1
 128 256 l 1
EndSplineSet
Fore
SplineSet
0 0 m 1
 0 219 l 1
 512 731 l 1
 512 768 l 1
 0 768 l 1
 0 896 l 1
 640 896 l 1
 640 677 l 1
 128 165 l 1
 128 128 l 1
 640 128 l 1
 640 0 l 1
 0 0 l 1
EndSplineSet
EndChar

StartChar: char123
Encoding: 91 123 90
GlifName: char123
Width: 768
Flags: HW
LayerCount: 2
Back
SplineSet
128 384 m 1
 128 512 l 1
 256 512 l 1
 256 1024 l 1
 384 1024 l 1
 384 1152 l 1
 512 1152 l 1
 512 1024 l 1
 384 1024 l 1
 384 512 l 1
 256 512 l 1
 256 384 l 1
 128 384 l 1
256 384 m 1
 384 384 l 1
 384 -128 l 1
 256 -128 l 1
 256 384 l 1
384 -128 m 1
 512 -128 l 1
 512 -256 l 1
 384 -256 l 1
 384 -128 l 1
EndSplineSet
Fore
SplineSet
421 -256 m 5
 256 -91 l 5
 256 293 l 5
 128 421 l 5
 128 475 l 5
 256 603 l 5
 256 987 l 5
 421 1152 l 5
 512 1061 l 5
 384 933 l 5
 384 549 l 5
 283 448 l 5
 384 347 l 5
 384 -37 l 5
 512 -165 l 5
 421 -256 l 5
EndSplineSet
EndChar

StartChar: char124
Encoding: 92 124 91
GlifName: char124
Width: 768
Flags: HW
LayerCount: 2
Back
SplineSet
384 1152 m 1
 384 -256 l 1
 256 -256 l 1
 256 1152 l 1
 384 1152 l 1
EndSplineSet
Fore
SplineSet
256 -256 m 1
 256 1152 l 1
 384 1152 l 1
 384 -256 l 1
 256 -256 l 1
EndSplineSet
EndChar

StartChar: char125
Encoding: 93 125 92
GlifName: char125
Width: 768
Flags: HW
LayerCount: 2
Back
SplineSet
128 1024 m 1
 128 1152 l 1
 256 1152 l 1
 256 1024 l 1
 128 1024 l 1
128 -256 m 1
 128 -128 l 1
 256 -128 l 1
 256 384 l 1
 384 384 l 1
 384 512 l 1
 256 512 l 1
 256 1024 l 1
 384 1024 l 1
 384 512 l 1
 512 512 l 1
 512 384 l 1
 384 384 l 1
 384 -128 l 1
 256 -128 l 1
 256 -256 l 1
 128 -256 l 1
EndSplineSet
Fore
SplineSet
219 -256 m 1
 384 -91 l 1
 384 293 l 1
 512 421 l 1
 512 475 l 1
 384 603 l 1
 384 987 l 1
 219 1152 l 1
 128 1061 l 1
 256 933 l 1
 256 549 l 1
 357 448 l 1
 256 347 l 1
 256 -37 l 1
 128 -165 l 1
 219 -256 l 1
EndSplineSet
EndChar

StartChar: char126
Encoding: 94 126 93
GlifName: char126
Width: 768
Flags: HW
LayerCount: 2
Back
SplineSet
0 896 m 1
 0 1024 l 1
 128 1024 l 1
 128 1152 l 1
 256 1152 l 1
 256 1024 l 1
 128 1024 l 1
 128 896 l 1
 0 896 l 1
256 1024 m 1
 384 1024 l 1
 384 896 l 1
 256 896 l 1
 256 1024 l 1
512 896 m 1
 512 1024 l 1
 640 1024 l 1
 640 896 l 1
 512 896 l 1
512 896 m 1
 512 768 l 1
 384 768 l 1
 384 896 l 1
 512 896 l 1
EndSplineSet
Fore
SplineSet
91 896 m 1
 0 987 l 1
 192 1179 l 1
 448 923 l 1
 549 1024 l 1
 640 933 l 1
 448 741 l 1
 192 997 l 1
 91 896 l 1
EndSplineSet
EndChar

StartChar: logicalnot
Encoding: 95 172 94
GlifName: logicalnot
Width: 768
Flags: HW
LayerCount: 2
Back
SplineSet
0 1024 m 1
 0 1152 l 1
 640 1152 l 1
 640 768 l 1
 512 768 l 1
 512 1024 l 1
 0 1024 l 1
EndSplineSet
Fore
SplineSet
512 768 m 5
 512 1024 l 1
 0 1024 l 1
 0 1152 l 1
 640 1152 l 1
 640 768 l 1
 512 768 l 5
EndSplineSet
EndChar

StartChar: periodcentered
Encoding: 96 183 95
GlifName: periodcentered
Width: 768
Flags: HW
LayerCount: 2
Back
SplineSet
256 512 m 1
 256 640 l 1
 384 640 l 1
 384 512 l 1
 256 512 l 1
EndSplineSet
Fore
SplineSet
256 512 m 1
 256 640 l 1
 384 640 l 1
 384 512 l 1
 256 512 l 1
EndSplineSet
EndChar

StartChar: multiply
Encoding: 97 215 96
GlifName: multiply
Width: 768
Flags: HW
LayerCount: 2
Back
SplineSet
0 768 m 1
 0 896 l 1
 128 896 l 1
 128 768 l 1
 0 768 l 1
0 256 m 1
 0 384 l 1
 128 384 l 1
 128 512 l 1
 256 512 l 1
 256 640 l 1
 128 640 l 1
 128 768 l 1
 256 768 l 1
 256 640 l 1
 384 640 l 1
 384 768 l 1
 512 768 l 1
 512 896 l 1
 640 896 l 1
 640 768 l 1
 512 768 l 1
 512 640 l 1
 384 640 l 1
 384 512 l 1
 256 512 l 1
 256 384 l 1
 128 384 l 1
 128 256 l 1
 0 256 l 1
384 512 m 1
 512 512 l 1
 512 384 l 1
 384 384 l 1
 384 512 l 1
512 384 m 1
 640 384 l 1
 640 256 l 1
 512 256 l 1
 512 384 l 1
EndSplineSet
Fore
SplineSet
91 256 m 5
 0 347 l 1
 229 576 l 1
 0 805 l 1
 91 896 l 1
 320 667 l 1
 549 896 l 1
 640 805 l 1
 411 576 l 1
 640 347 l 1
 549 256 l 1
 320 485 l 1
 91 256 l 5
EndSplineSet
EndChar

StartChar: Gamma
Encoding: 98 915 97
GlifName: G_amma
Width: 768
Flags: HW
LayerCount: 2
Back
SplineSet
640 1024 m 1
 128 1024 l 1
 128 0 l 1
 0 0 l 1
 0 1152 l 1
 640 1152 l 1
 640 1024 l 1
EndSplineSet
Fore
SplineSet
0 0 m 5
 0 1152 l 1
 640 1152 l 1
 640 1024 l 1
 128 1024 l 1
 128 0 l 1
 0 0 l 5
EndSplineSet
EndChar

StartChar: uni0394
Encoding: 99 916 98
GlifName: uni0394
Width: 768
Flags: HW
LayerCount: 2
Back
SplineSet
128 0 m 1
 128 128 l 1
 256 128 l 1
 256 384 l 1
 384 384 l 1
 384 640 l 1
 512 640 l 1
 512 896 l 1
 640 896 l 1
 640 1152 l 1
 768 1152 l 1
 768 896 l 1
 640 896 l 1
 640 640 l 1
 512 640 l 1
 512 384 l 1
 384 384 l 1
 384 128 l 1
 1024 128 l 1
 1024 384 l 1
 896 384 l 1
 896 640 l 1
 768 640 l 1
 768 896 l 1
 896 896 l 1
 896 640 l 1
 1024 640 l 1
 1024 384 l 1
 1152 384 l 1
 1152 128 l 1
 1280 128 l 1
 1280 0 l 1
 128 0 l 1
EndSplineSet
EndChar

StartChar: Lambda
Encoding: 100 923 99
GlifName: L_ambda
Width: 768
Flags: HW
LayerCount: 2
Back
SplineSet
128 0 m 1
 128 128 l 1
 256 128 l 1
 256 384 l 1
 384 384 l 1
 384 640 l 1
 512 640 l 1
 512 896 l 1
 640 896 l 1
 640 1152 l 1
 768 1152 l 1
 768 896 l 1
 640 896 l 1
 640 640 l 1
 512 640 l 1
 512 384 l 1
 384 384 l 1
 384 0 l 1
 128 0 l 1
768 896 m 1
 896 896 l 1
 896 640 l 1
 768 640 l 1
 768 896 l 1
896 640 m 1
 1024 640 l 1
 1024 384 l 1
 896 384 l 1
 896 640 l 1
1024 384 m 1
 1152 384 l 1
 1152 128 l 1
 1280 128 l 1
 1280 0 l 1
 1024 0 l 1
 1024 384 l 1
EndSplineSet
EndChar

StartChar: Pi
Encoding: 101 928 100
GlifName: P_i
Width: 768
Flags: HW
LayerCount: 2
Back
SplineSet
0 1152 m 1
 640 1152 l 1
 640 0 l 1
 512 0 l 1
 512 1024 l 1
 128 1024 l 1
 128 0 l 1
 0 0 l 1
 0 1152 l 1
EndSplineSet
Fore
SplineSet
0 0 m 5
 0 1152 l 1
 640 1152 l 1
 640 0 l 1
 512 0 l 1
 512 1024 l 1
 128 1024 l 1
 128 0 l 1
 0 0 l 5
EndSplineSet
EndChar

StartChar: Sigma
Encoding: 102 931 101
GlifName: S_igma
Width: 768
Flags: HW
LayerCount: 2
Back
SplineSet
640 1024 m 1
 128 1024 l 1
 128 896 l 1
 0 896 l 1
 0 1152 l 1
 640 1152 l 1
 640 1024 l 1
128 896 m 1
 256 896 l 1
 256 768 l 1
 128 768 l 1
 128 896 l 1
256 768 m 1
 384 768 l 1
 384 640 l 1
 256 640 l 1
 256 768 l 1
384 640 m 1
 512 640 l 1
 512 512 l 1
 384 512 l 1
 384 640 l 1
384 512 m 1
 384 384 l 1
 256 384 l 1
 256 512 l 1
 384 512 l 1
256 384 m 1
 256 256 l 1
 128 256 l 1
 128 384 l 1
 256 384 l 1
128 256 m 1
 128 128 l 1
 640 128 l 1
 640 0 l 1
 0 0 l 1
 0 256 l 1
 128 256 l 1
EndSplineSet
Fore
SplineSet
0 0 m 1
 0 219 l 1
 357 576 l 1
 0 933 l 1
 0 1152 l 1
 640 1152 l 1
 640 1024 l 1
 128 1024 l 1
 128 987 l 1
 539 576 l 1
 128 165 l 1
 128 128 l 1
 640 128 l 1
 640 0 l 1
 0 0 l 1
EndSplineSet
EndChar

StartChar: alpha
Encoding: 103 945 102
GlifName: alpha
Width: 768
Flags: HW
LayerCount: 2
Back
SplineSet
384 768 m 1
 128 768 l 1
 128 896 l 1
 384 896 l 1
 384 768 l 1
512 768 m 1
 512 896 l 1
 640 896 l 1
 640 768 l 1
 512 768 l 1
512 768 m 1
 512 128 l 1
 384 128 l 1
 384 768 l 1
 512 768 l 1
128 768 m 1
 128 128 l 1
 0 128 l 1
 0 768 l 1
 128 768 l 1
512 128 m 1
 640 128 l 1
 640 0 l 1
 512 0 l 1
 512 128 l 1
384 128 m 1
 384 0 l 1
 128 0 l 1
 128 128 l 1
 384 128 l 1
EndSplineSet
Fore
SplineSet
219 128 m 1
 293 128 l 1
 384 219 l 1
 384 677 l 1
 293 768 l 1
 219 768 l 1
 128 677 l 1
 128 219 l 1
 219 128 l 1
448 101 m 1
 347 0 l 1
 165 0 l 1
 0 165 l 1
 0 731 l 1
 165 896 l 1
 347 896 l 1
 448 795 l 1
 549 896 l 1
 640 805 l 1
 512 677 l 1
 512 219 l 1
 640 91 l 1
 549 0 l 1
 448 101 l 1
EndSplineSet
EndChar

StartChar: beta
Encoding: 104 946 103
GlifName: beta
Width: 768
Flags: HW
LayerCount: 2
Back
SplineSet
512 1024 m 1
 128 1024 l 1
 128 768 l 1
 512 768 l 1
 512 1024 l 1
0 1152 m 1
 512 1152 l 1
 512 1024 l 1
 640 1024 l 1
 640 768 l 1
 512 768 l 1
 512 640 l 1
 128 640 l 1
 128 128 l 1
 512 128 l 1
 512 640 l 1
 640 640 l 1
 640 128 l 1
 512 128 l 1
 512 0 l 1
 128 0 l 1
 128 -256 l 1
 0 -256 l 1
 0 1152 l 1
EndSplineSet
Fore
SplineSet
128 768 m 1
 421 768 l 1
 512 859 l 1
 512 933 l 1
 421 1024 l 1
 128 1024 l 1
 128 768 l 1
128 128 m 1
 421 128 l 1
 512 219 l 1
 512 549 l 1
 421 640 l 1
 128 640 l 1
 128 128 l 1
0 -256 m 1
 0 1152 l 1
 475 1152 l 1
 640 987 l 1
 640 805 l 1
 539 704 l 1
 640 603 l 1
 640 165 l 1
 475 0 l 1
 128 0 l 1
 128 -256 l 1
 0 -256 l 1
EndSplineSet
EndChar

StartChar: gamma
Encoding: 105 947 104
GlifName: gamma
Width: 768
Flags: HW
LayerCount: 2
Back
SplineSet
0 -256 m 1
 0 -128 l 1
 128 -128 l 1
 128 0 l 1
 256 0 l 1
 256 128 l 1
 384 128 l 1
 384 256 l 1
 256 256 l 1
 256 384 l 1
 128 384 l 1
 128 512 l 1
 0 512 l 1
 0 896 l 1
 128 896 l 1
 128 512 l 1
 256 512 l 1
 256 384 l 1
 384 384 l 1
 384 256 l 1
 512 256 l 1
 512 896 l 1
 640 896 l 1
 640 256 l 1
 512 256 l 1
 512 128 l 1
 384 128 l 1
 384 0 l 1
 256 0 l 1
 256 -128 l 1
 128 -128 l 1
 128 -256 l 1
 0 -256 l 1
EndSplineSet
Fore
SplineSet
91 -256 m 1
 0 -165 l 1
 357 192 l 1
 0 549 l 1
 0 896 l 1
 128 896 l 1
 128 603 l 1
 448 283 l 1
 512 347 l 1
 512 896 l 1
 640 896 l 1
 640 293 l 1
 91 -256 l 1
EndSplineSet
EndChar

StartChar: delta
Encoding: 106 948 105
GlifName: delta
Width: 768
Flags: HW
LayerCount: 2
Back
SplineSet
0 896 m 1
 0 1024 l 1
 128 1024 l 1
 128 1152 l 1
 640 1152 l 1
 640 1024 l 1
 128 1024 l 1
 128 896 l 1
 0 896 l 1
512 768 m 1
 128 768 l 1
 128 896 l 1
 512 896 l 1
 512 768 l 1
512 768 m 1
 640 768 l 1
 640 128 l 1
 512 128 l 1
 512 768 l 1
128 768 m 1
 128 128 l 1
 0 128 l 1
 0 768 l 1
 128 768 l 1
512 128 m 1
 512 0 l 1
 128 0 l 1
 128 128 l 1
 512 128 l 1
EndSplineSet
Fore
SplineSet
128 219 m 1
 219 128 l 1
 421 128 l 1
 512 219 l 1
 512 677 l 1
 421 768 l 1
 219 768 l 1
 128 677 l 1
 128 219 l 1
165 0 m 1
 0 165 l 1
 0 731 l 1
 101 832 l 1
 0 933 l 1
 0 987 l 1
 165 1152 l 1
 640 1152 l 1
 640 1024 l 1
 219 1024 l 1
 155 960 l 1
 219 896 l 1
 475 896 l 1
 640 731 l 1
 640 165 l 1
 475 0 l 1
 165 0 l 1
EndSplineSet
EndChar

StartChar: epsilon
Encoding: 107 949 106
GlifName: epsilon
Width: 768
Flags: HW
LayerCount: 2
Back
SplineSet
640 768 m 1
 128 768 l 1
 128 896 l 1
 640 896 l 1
 640 768 l 1
128 768 m 1
 128 512 l 1
 0 512 l 1
 0 768 l 1
 128 768 l 1
512 384 m 1
 128 384 l 1
 128 512 l 1
 512 512 l 1
 512 384 l 1
128 384 m 1
 128 128 l 1
 0 128 l 1
 0 384 l 1
 128 384 l 1
640 0 m 1
 128 0 l 1
 128 128 l 1
 640 128 l 1
 640 0 l 1
EndSplineSet
Fore
SplineSet
165 0 m 1
 0 165 l 1
 0 347 l 1
 101 448 l 1
 0 549 l 1
 0 731 l 1
 165 896 l 1
 640 896 l 1
 640 768 l 1
 219 768 l 1
 128 677 l 1
 128 603 l 1
 219 512 l 1
 512 512 l 1
 512 384 l 1
 219 384 l 1
 128 293 l 1
 128 219 l 1
 219 128 l 1
 640 128 l 1
 640 0 l 1
 165 0 l 1
EndSplineSet
EndChar

StartChar: theta
Encoding: 108 952 107
GlifName: theta
Width: 768
Flags: HW
LayerCount: 2
Back
SplineSet
512 1024 m 1
 128 1024 l 1
 128 1152 l 1
 512 1152 l 1
 512 1024 l 1
512 1024 m 1
 640 1024 l 1
 640 128 l 1
 512 128 l 1
 512 512 l 1
 128 512 l 1
 128 128 l 1
 0 128 l 1
 0 1024 l 1
 128 1024 l 1
 128 640 l 1
 512 640 l 1
 512 1024 l 1
512 128 m 1
 512 0 l 1
 128 0 l 1
 128 128 l 1
 512 128 l 1
EndSplineSet
Fore
SplineSet
128 640 m 1
 512 640 l 1
 512 933 l 1
 421 1024 l 1
 219 1024 l 1
 128 933 l 1
 128 640 l 1
128 219 m 1
 219 128 l 1
 421 128 l 1
 512 219 l 1
 512 512 l 1
 128 512 l 1
 128 219 l 1
165 0 m 1
 0 165 l 1
 0 987 l 1
 165 1152 l 1
 475 1152 l 1
 640 987 l 1
 640 165 l 1
 475 0 l 1
 165 0 l 1
EndSplineSet
EndChar

StartChar: lambda
Encoding: 109 955 108
GlifName: lambda
Width: 768
Flags: HW
LayerCount: 2
Back
SplineSet
128 1152 m 1
 128 768 l 1
 0 768 l 1
 0 1152 l 1
 128 1152 l 1
128 768 m 1
 256 768 l 1
 256 640 l 1
 128 640 l 1
 128 768 l 1
256 640 m 1
 384 640 l 1
 384 512 l 1
 256 512 l 1
 256 640 l 1
384 512 m 1
 512 512 l 1
 512 384 l 1
 384 384 l 1
 384 512 l 1
256 512 m 1
 256 384 l 1
 128 384 l 1
 128 512 l 1
 256 512 l 1
512 384 m 1
 640 384 l 1
 640 0 l 1
 512 0 l 1
 512 384 l 1
128 384 m 1
 128 0 l 1
 0 0 l 1
 0 384 l 1
 128 384 l 1
EndSplineSet
Fore
SplineSet
0 0 m 1
 0 347 l 1
 229 576 l 1
 0 805 l 1
 0 1152 l 1
 128 1152 l 1
 128 859 l 1
 640 347 l 1
 640 0 l 1
 512 0 l 1
 512 293 l 1
 320 485 l 1
 128 293 l 1
 128 0 l 1
 0 0 l 1
EndSplineSet
EndChar

StartChar: uni03BC
Encoding: 110 956 109
GlifName: uni03B_C_
Width: 768
Flags: HW
LayerCount: 2
Back
SplineSet
640 896 m 1
 640 128 l 1
 512 128 l 1
 512 896 l 1
 640 896 l 1
128 896 m 1
 128 128 l 1
 512 128 l 1
 512 0 l 1
 128 0 l 1
 128 -256 l 1
 0 -256 l 1
 0 896 l 1
 128 896 l 1
EndSplineSet
Fore
SplineSet
0 -256 m 5
 0 896 l 1
 128 896 l 1
 128 128 l 1
 421 128 l 1
 512 219 l 1
 512 896 l 1
 640 896 l 1
 640 165 l 1
 475 0 l 1
 128 0 l 1
 128 -256 l 1
 0 -256 l 5
EndSplineSet
EndChar

StartChar: nu
Encoding: 111 957 110
GlifName: nu
Width: 768
Flags: HW
LayerCount: 2
Back
SplineSet
640 896 m 1
 640 384 l 1
 512 384 l 1
 512 896 l 1
 640 896 l 1
128 896 m 1
 128 128 l 1
 256 128 l 1
 256 256 l 1
 384 256 l 1
 384 384 l 1
 512 384 l 1
 512 256 l 1
 384 256 l 1
 384 128 l 1
 256 128 l 1
 256 0 l 1
 0 0 l 1
 0 896 l 1
 128 896 l 1
EndSplineSet
Fore
SplineSet
0 0 m 1
 0 896 l 1
 128 896 l 1
 128 128 l 1
 165 128 l 1
 512 475 l 1
 512 896 l 1
 640 896 l 1
 640 421 l 1
 219 0 l 1
 0 0 l 1
EndSplineSet
EndChar

StartChar: pi
Encoding: 112 960 111
GlifName: pi
Width: 768
Flags: HW
LayerCount: 2
Back
SplineSet
0 768 m 1
 0 896 l 1
 640 896 l 1
 640 768 l 1
 512 768 l 1
 512 0 l 1
 384 0 l 1
 384 768 l 1
 256 768 l 1
 256 0 l 1
 128 0 l 1
 128 768 l 1
 0 768 l 1
EndSplineSet
Fore
SplineSet
128 0 m 1
 128 768 l 1
 0 768 l 1
 0 896 l 1
 640 896 l 1
 640 768 l 1
 512 768 l 1
 512 0 l 1
 384 0 l 1
 384 768 l 1
 256 768 l 1
 256 0 l 1
 128 0 l 1
EndSplineSet
EndChar

StartChar: sigma
Encoding: 113 963 112
GlifName: sigma
Width: 768
Flags: HW
LayerCount: 2
Back
SplineSet
128 896 m 1
 640 896 l 1
 640 768 l 1
 512 768 l 1
 512 128 l 1
 384 128 l 1
 384 768 l 1
 128 768 l 1
 128 896 l 1
128 768 m 1
 128 128 l 1
 0 128 l 1
 0 768 l 1
 128 768 l 1
384 128 m 1
 384 0 l 1
 128 0 l 1
 128 128 l 1
 384 128 l 1
EndSplineSet
Fore
SplineSet
128 219 m 1
 219 128 l 1
 293 128 l 1
 384 219 l 1
 384 768 l 1
 219 768 l 1
 128 677 l 1
 128 219 l 1
165 0 m 1
 0 165 l 1
 0 731 l 1
 165 896 l 1
 640 896 l 1
 640 768 l 1
 512 768 l 1
 512 165 l 1
 347 0 l 1
 165 0 l 1
EndSplineSet
EndChar

StartChar: tau
Encoding: 114 964 113
GlifName: tau
Width: 768
Flags: HW
LayerCount: 2
Back
SplineSet
0 768 m 1
 0 896 l 1
 640 896 l 1
 640 768 l 1
 384 768 l 1
 384 0 l 1
 256 0 l 1
 256 768 l 1
 0 768 l 1
EndSplineSet
Fore
SplineSet
256 0 m 5
 256 768 l 1
 0 768 l 1
 0 896 l 1
 640 896 l 1
 640 768 l 1
 384 768 l 1
 384 0 l 1
 256 0 l 5
EndSplineSet
EndChar

StartChar: phi
Encoding: 115 966 114
GlifName: phi
Width: 768
Flags: HW
LayerCount: 2
Back
SplineSet
512 1024 m 1
 384 1024 l 1
 384 1152 l 1
 512 1152 l 1
 512 1024 l 1
512 1024 m 1
 640 1024 l 1
 640 640 l 1
 512 640 l 1
 512 1024 l 1
384 1024 m 1
 384 640 l 1
 512 640 l 1
 512 512 l 1
 384 512 l 1
 384 0 l 1
 256 0 l 1
 256 512 l 1
 128 512 l 1
 128 640 l 1
 0 640 l 1
 0 1024 l 1
 128 1024 l 1
 128 640 l 1
 256 640 l 1
 256 1024 l 1
 384 1024 l 1
EndSplineSet
Fore
SplineSet
384 640 m 1
 421 640 l 1
 512 731 l 1
 512 933 l 1
 448 997 l 1
 384 933 l 1
 384 640 l 1
256 0 m 1
 256 512 l 1
 165 512 l 1
 0 677 l 1
 0 1024 l 1
 128 1024 l 1
 128 731 l 1
 219 640 l 1
 256 640 l 1
 256 987 l 1
 421 1152 l 1
 475 1152 l 1
 640 987 l 1
 640 677 l 1
 475 512 l 1
 384 512 l 1
 384 0 l 1
 256 0 l 1
EndSplineSet
EndChar

StartChar: chi
Encoding: 116 967 115
GlifName: chi
Width: 768
Flags: HW
LayerCount: 2
Back
SplineSet
0 768 m 1
 0 896 l 1
 128 896 l 1
 128 768 l 1
 0 768 l 1
640 1152 m 1
 640 768 l 1
 512 768 l 1
 512 1152 l 1
 640 1152 l 1
512 768 m 1
 512 640 l 1
 384 640 l 1
 384 768 l 1
 512 768 l 1
128 768 m 1
 256 768 l 1
 256 640 l 1
 128 640 l 1
 128 768 l 1
384 640 m 1
 384 512 l 1
 256 512 l 1
 256 640 l 1
 384 640 l 1
384 512 m 1
 512 512 l 1
 512 384 l 1
 384 384 l 1
 384 512 l 1
256 512 m 1
 256 384 l 1
 128 384 l 1
 128 512 l 1
 256 512 l 1
512 384 m 1
 640 384 l 1
 640 256 l 1
 512 256 l 1
 512 384 l 1
128 384 m 1
 128 0 l 1
 0 0 l 1
 0 384 l 1
 128 384 l 1
EndSplineSet
Fore
SplineSet
0 0 m 1
 0 347 l 1
 229 576 l 1
 0 805 l 1
 91 896 l 1
 320 667 l 1
 512 859 l 1
 512 1152 l 1
 640 1152 l 1
 640 805 l 1
 411 576 l 1
 640 347 l 1
 549 256 l 1
 320 485 l 1
 128 293 l 1
 128 0 l 1
 0 0 l 1
EndSplineSet
EndChar

StartChar: psi
Encoding: 117 968 116
GlifName: psi
Width: 768
Flags: HW
LayerCount: 2
Back
SplineSet
640 1152 m 1
 640 640 l 1
 512 640 l 1
 512 1152 l 1
 640 1152 l 1
384 1152 m 1
 384 640 l 1
 512 640 l 1
 512 512 l 1
 384 512 l 1
 384 0 l 1
 256 0 l 1
 256 512 l 1
 128 512 l 1
 128 640 l 1
 0 640 l 1
 0 1152 l 1
 128 1152 l 1
 128 640 l 1
 256 640 l 1
 256 1152 l 1
 384 1152 l 1
EndSplineSet
Fore
SplineSet
256 0 m 1
 256 512 l 1
 165 512 l 1
 0 677 l 1
 0 1152 l 1
 128 1152 l 1
 128 731 l 1
 219 640 l 1
 256 640 l 1
 256 1152 l 1
 384 1152 l 1
 384 640 l 1
 421 640 l 1
 512 731 l 1
 512 1152 l 1
 640 1152 l 1
 640 677 l 1
 475 512 l 1
 384 512 l 1
 384 0 l 1
 256 0 l 1
EndSplineSet
EndChar

StartChar: quotedblleft
Encoding: 118 8220 117
GlifName: quotedblleft
Width: 768
Flags: HW
LayerCount: 2
Back
SplineSet
0 1024 m 1
 0 1152 l 1
 128 1152 l 1
 128 1024 l 1
 0 1024 l 1
384 1024 m 1
 256 1024 l 1
 256 1152 l 1
 384 1152 l 1
 384 1024 l 1
384 1024 m 1
 512 1024 l 1
 512 896 l 1
 384 896 l 1
 384 1024 l 1
256 1024 m 1
 256 896 l 1
 128 896 l 1
 128 1024 l 1
 256 1024 l 1
512 896 m 1
 640 896 l 1
 640 768 l 1
 512 768 l 1
 512 896 l 1
384 896 m 1
 384 768 l 1
 256 768 l 1
 256 896 l 1
 384 896 l 1
EndSplineSet
Fore
SplineSet
549 768 m 1
 256 1061 l 1
 347 1152 l 1
 640 859 l 1
 549 768 l 1
293 768 m 1
 0 1061 l 1
 91 1152 l 1
 384 859 l 1
 293 768 l 1
EndSplineSet
EndChar

StartChar: quotedblright
Encoding: 119 8221 118
GlifName: quotedblright
Width: 768
Flags: HW
LayerCount: 2
Back
SplineSet
0 768 m 1
 0 896 l 1
 128 896 l 1
 128 1024 l 1
 256 1024 l 1
 256 1152 l 1
 384 1152 l 1
 384 1024 l 1
 256 1024 l 1
 256 896 l 1
 128 896 l 1
 128 768 l 1
 0 768 l 1
512 1024 m 1
 512 1152 l 1
 640 1152 l 1
 640 1024 l 1
 512 1024 l 1
512 1024 m 1
 512 896 l 1
 384 896 l 1
 384 1024 l 1
 512 1024 l 1
384 896 m 1
 384 768 l 1
 256 768 l 1
 256 896 l 1
 384 896 l 1
EndSplineSet
Fore
SplineSet
549 1152 m 1
 256 859 l 1
 347 768 l 1
 640 1061 l 1
 549 1152 l 1
293 1152 m 1
 0 859 l 1
 91 768 l 1
 384 1061 l 1
 293 1152 l 1
EndSplineSet
EndChar

StartChar: uni2102
Encoding: 120 8450 119
GlifName: uni2102
Width: 768
Flags: HW
LayerCount: 2
Back
SplineSet
512 1024 m 1
 256 1024 l 1
 256 128 l 1
 512 128 l 1
 512 256 l 1
 640 256 l 1
 640 128 l 1
 512 128 l 1
 512 0 l 1
 128 0 l 1
 128 128 l 1
 0 128 l 1
 0 1024 l 1
 128 1024 l 1
 128 1152 l 1
 512 1152 l 1
 512 1024 l 1
512 1024 m 1
 640 1024 l 1
 640 896 l 1
 512 896 l 1
 512 1024 l 1
EndSplineSet
Fore
SplineSet
165 0 m 1
 0 165 l 1
 0 987 l 1
 165 1152 l 1
 475 1152 l 1
 640 987 l 1
 549 896 l 1
 421 1024 l 1
 256 1024 l 1
 256 128 l 1
 421 128 l 1
 549 256 l 1
 640 165 l 1
 475 0 l 1
 165 0 l 1
EndSplineSet
EndChar

StartChar: uni2115
Encoding: 121 8469 120
GlifName: uni2115
Width: 768
Flags: HW
LayerCount: 2
Back
SplineSet
640 1152 m 1
 640 0 l 1
 512 0 l 1
 512 384 l 1
 384 384 l 1
 384 512 l 1
 256 512 l 1
 256 640 l 1
 128 640 l 1
 128 0 l 1
 0 0 l 1
 0 1152 l 1
 128 1152 l 1
 128 1024 l 1
 256 1024 l 1
 256 896 l 1
 384 896 l 1
 384 768 l 1
 512 768 l 1
 512 1152 l 1
 640 1152 l 1
EndSplineSet
Fore
SplineSet
0 0 m 1
 0 1152 l 1
 91 1152 l 1
 475 768 l 1
 512 768 l 1
 512 1152 l 1
 640 1152 l 1
 640 0 l 1
 512 0 l 1
 512 293 l 1
 165 640 l 1
 128 640 l 1
 128 0 l 1
 0 0 l 1
EndSplineSet
EndChar

StartChar: uni211A
Encoding: 122 8474 121
GlifName: uni211A_
Width: 768
Flags: HW
LayerCount: 2
Back
SplineSet
512 1024 m 1
 256 1024 l 1
 256 128 l 1
 512 128 l 1
 512 1024 l 1
128 1152 m 1
 512 1152 l 1
 512 1024 l 1
 640 1024 l 1
 640 128 l 1
 512 128 l 1
 512 0 l 1
 128 0 l 1
 128 128 l 1
 0 128 l 1
 0 1024 l 1
 128 1024 l 1
 128 1152 l 1
512 0 m 1
 640 0 l 1
 640 -256 l 1
 512 -256 l 1
 512 0 l 1
EndSplineSet
Fore
SplineSet
256 128 m 1
 421 128 l 1
 512 219 l 1
 512 933 l 1
 421 1024 l 1
 256 1024 l 1
 256 128 l 1
165 0 m 1
 0 165 l 1
 0 987 l 1
 165 1152 l 1
 475 1152 l 1
 640 987 l 1
 640 165 l 1
 539 64 l 1
 640 -37 l 1
 640 -256 l 1
 512 -256 l 1
 512 -91 l 1
 421 0 l 1
 165 0 l 1
EndSplineSet
EndChar

StartChar: uni211D
Encoding: 123 8477 122
GlifName: uni211D_
Width: 768
Flags: HW
LayerCount: 2
Back
SplineSet
512 1024 m 1
 256 1024 l 1
 256 640 l 1
 512 640 l 1
 512 1024 l 1
0 1152 m 1
 512 1152 l 1
 512 1024 l 1
 640 1024 l 1
 640 640 l 1
 512 640 l 1
 512 512 l 1
 256 512 l 1
 256 0 l 1
 0 0 l 1
 0 1152 l 1
512 512 m 1
 640 512 l 1
 640 0 l 1
 512 0 l 1
 512 512 l 1
EndSplineSet
Fore
SplineSet
256 640 m 1
 421 640 l 1
 512 731 l 1
 512 933 l 1
 421 1024 l 1
 256 1024 l 1
 256 640 l 1
0 0 m 1
 0 1152 l 1
 475 1152 l 1
 640 987 l 1
 640 677 l 1
 539 576 l 1
 640 475 l 1
 640 0 l 1
 512 0 l 1
 512 421 l 1
 421 512 l 1
 256 512 l 1
 256 0 l 1
 0 0 l 1
EndSplineSet
EndChar

StartChar: uni2124
Encoding: 124 8484 123
GlifName: uni2124
Width: 768
Flags: HW
LayerCount: 2
Back
SplineSet
0 1024 m 1
 0 1152 l 1
 640 1152 l 1
 640 640 l 1
 512 640 l 1
 512 512 l 1
 384 512 l 1
 384 384 l 1
 256 384 l 1
 256 256 l 1
 128 256 l 1
 128 128 l 1
 640 128 l 1
 640 0 l 1
 0 0 l 1
 0 512 l 1
 128 512 l 1
 128 640 l 1
 256 640 l 1
 256 768 l 1
 384 768 l 1
 384 896 l 1
 512 896 l 1
 512 1024 l 1
 0 1024 l 1
EndSplineSet
Fore
SplineSet
0 0 m 5
 0 475 l 1
 512 987 l 1
 512 1024 l 1
 0 1024 l 1
 0 1152 l 1
 640 1152 l 1
 640 677 l 1
 128 165 l 1
 128 128 l 1
 640 128 l 1
 640 0 l 1
 0 0 l 5
EndSplineSet
EndChar

StartChar: arrowleft
Encoding: 125 8592 124
GlifName: arrowleft
Width: 768
Flags: HW
LayerCount: 2
Back
SplineSet
0 512 m 1
 0 640 l 1
 128 640 l 1
 128 768 l 1
 256 768 l 1
 256 640 l 1
 128 640 l 1
 128 512 l 1
 0 512 l 1
640 512 m 1
 256 512 l 1
 256 640 l 1
 640 640 l 1
 640 512 l 1
256 512 m 1
 256 384 l 1
 128 384 l 1
 128 512 l 1
 256 512 l 1
EndSplineSet
Fore
SplineSet
0 603 m 1
 0 549 l 1
 256 293 l 1
 256 512 l 1
 640 512 l 1
 640 640 l 1
 256 640 l 1
 256 859 l 1
 0 603 l 1
EndSplineSet
EndChar

StartChar: arrowright
Encoding: 126 8594 125
GlifName: arrowright
Width: 768
Flags: HW
LayerCount: 2
Back
SplineSet
0 512 m 1
 0 640 l 1
 384 640 l 1
 384 768 l 1
 512 768 l 1
 512 640 l 1
 384 640 l 1
 384 512 l 1
 0 512 l 1
512 640 m 1
 640 640 l 1
 640 512 l 1
 512 512 l 1
 512 640 l 1
512 512 m 1
 512 384 l 1
 384 384 l 1
 384 512 l 1
 512 512 l 1
EndSplineSet
Fore
SplineSet
640 603 m 1
 640 549 l 1
 384 293 l 1
 384 512 l 1
 0 512 l 1
 0 640 l 1
 384 640 l 1
 384 859 l 1
 640 603 l 1
EndSplineSet
EndChar

StartChar: arrowboth
Encoding: 127 8596 126
GlifName: arrowboth
Width: 768
Flags: HW
LayerCount: 2
Back
SplineSet
0 512 m 1
 0 640 l 1
 128 640 l 1
 128 768 l 1
 256 768 l 1
 256 640 l 1
 128 640 l 1
 128 512 l 1
 0 512 l 1
512 640 m 1
 384 640 l 1
 384 768 l 1
 512 768 l 1
 512 640 l 1
512 640 m 1
 640 640 l 1
 640 512 l 1
 512 512 l 1
 512 640 l 1
384 640 m 1
 384 512 l 1
 256 512 l 1
 256 640 l 1
 384 640 l 1
512 512 m 1
 512 384 l 1
 384 384 l 1
 384 512 l 1
 512 512 l 1
256 512 m 1
 256 384 l 1
 128 384 l 1
 128 512 l 1
 256 512 l 1
EndSplineSet
Fore
SplineSet
640 603 m 1
 640 549 l 1
 384 293 l 1
 384 512 l 1
 256 512 l 1
 256 293 l 1
 0 549 l 1
 0 603 l 1
 256 859 l 1
 256 640 l 1
 384 640 l 1
 384 859 l 1
 640 603 l 1
EndSplineSet
EndChar

StartChar: universal
Encoding: 128 8704 127
GlifName: universal
Width: 768
Flags: HW
LayerCount: 2
Back
SplineSet
128 1024 m 1
 128 1152 l 1
 384 1152 l 1
 384 768 l 1
 256 768 l 1
 256 1024 l 1
 128 1024 l 1
1024 1152 m 1
 1280 1152 l 1
 1280 1024 l 1
 1152 1024 l 1
 1152 768 l 1
 1024 768 l 1
 1024 1152 l 1
1024 768 m 1
 1024 512 l 1
 896 512 l 1
 896 256 l 1
 768 256 l 1
 768 512 l 1
 640 512 l 1
 640 256 l 1
 512 256 l 1
 512 512 l 1
 384 512 l 1
 384 768 l 1
 512 768 l 1
 512 640 l 1
 896 640 l 1
 896 768 l 1
 1024 768 l 1
768 256 m 1
 768 0 l 1
 640 0 l 1
 640 256 l 1
 768 256 l 1
EndSplineSet
EndChar

StartChar: partialdiff
Encoding: 129 8706 128
GlifName: partialdiff
Width: 768
Flags: HW
LayerCount: 2
Back
SplineSet
0 1024 m 1
 0 1152 l 1
 256 1152 l 1
 256 1024 l 1
 0 1024 l 1
256 1024 m 1
 384 1024 l 1
 384 896 l 1
 256 896 l 1
 256 1024 l 1
384 896 m 1
 512 896 l 1
 512 768 l 1
 384 768 l 1
 384 896 l 1
512 768 m 1
 640 768 l 1
 640 128 l 1
 512 128 l 1
 512 512 l 1
 128 512 l 1
 128 640 l 1
 512 640 l 1
 512 768 l 1
128 512 m 1
 128 128 l 1
 0 128 l 1
 0 512 l 1
 128 512 l 1
512 128 m 1
 512 0 l 1
 128 0 l 1
 128 128 l 1
 512 128 l 1
EndSplineSet
Fore
SplineSet
128 219 m 1
 219 128 l 1
 421 128 l 1
 512 219 l 1
 512 512 l 1
 219 512 l 1
 128 421 l 1
 128 219 l 1
165 0 m 1
 0 165 l 1
 0 475 l 1
 165 640 l 1
 512 640 l 1
 512 677 l 1
 165 1024 l 1
 0 1024 l 1
 0 1152 l 1
 219 1152 l 1
 640 731 l 1
 640 165 l 1
 475 0 l 1
 165 0 l 1
EndSplineSet
EndChar

StartChar: existential
Encoding: 130 8707 129
GlifName: existential
Width: 768
Flags: HW
LayerCount: 2
Back
SplineSet
0 1024 m 1
 0 1152 l 1
 640 1152 l 1
 640 0 l 1
 0 0 l 1
 0 128 l 1
 512 128 l 1
 512 512 l 1
 128 512 l 1
 128 640 l 1
 512 640 l 1
 512 1024 l 1
 0 1024 l 1
EndSplineSet
Fore
SplineSet
0 0 m 1
 0 128 l 1
 512 128 l 1
 512 512 l 1
 128 512 l 1
 128 640 l 1
 512 640 l 1
 512 1024 l 1
 0 1024 l 1
 0 1152 l 1
 640 1152 l 1
 640 0 l 1
 0 0 l 1
EndSplineSet
EndChar

StartChar: emptyset
Encoding: 131 8709 130
GlifName: emptyset
Width: 768
Flags: HW
LayerCount: 2
Back
SplineSet
128 0 m 1
 128 128 l 1
 256 128 l 1
 256 896 l 1
 384 896 l 1
 384 1024 l 1
 512 1024 l 1
 512 1152 l 1
 896 1152 l 1
 896 1024 l 1
 512 1024 l 1
 512 896 l 1
 384 896 l 1
 384 384 l 1
 512 384 l 1
 512 512 l 1
 640 512 l 1
 640 640 l 1
 768 640 l 1
 768 768 l 1
 896 768 l 1
 896 1024 l 1
 1152 1024 l 1
 1152 1152 l 1
 1280 1152 l 1
 1280 1024 l 1
 1152 1024 l 1
 1152 256 l 1
 1024 256 l 1
 1024 768 l 1
 896 768 l 1
 896 640 l 1
 768 640 l 1
 768 512 l 1
 640 512 l 1
 640 384 l 1
 512 384 l 1
 512 128 l 1
 256 128 l 1
 256 0 l 1
 128 0 l 1
1024 256 m 1
 1024 128 l 1
 896 128 l 1
 896 256 l 1
 1024 256 l 1
896 128 m 1
 896 0 l 1
 512 0 l 1
 512 128 l 1
 896 128 l 1
EndSplineSet
Fore
SplineSet
475 256 m 1
 603 128 l 1
 805 128 l 1
 1024 347 l 1
 1024 805 l 1
 475 256 l 1
384 347 m 1
 933 896 l 1
 805 1024 l 1
 603 1024 l 1
 384 805 l 1
 384 347 l 1
219 0 m 1
 128 91 l 1
 293 256 l 1
 256 293 l 1
 256 859 l 1
 549 1152 l 1
 859 1152 l 1
 1024 987 l 1
 1189 1152 l 1
 1280 1061 l 1
 1115 896 l 1
 1152 859 l 1
 1152 293 l 1
 859 0 l 1
 549 0 l 1
 384 165 l 1
 219 0 l 1
EndSplineSet
EndChar

StartChar: element
Encoding: 132 8712 131
GlifName: element
Width: 768
Flags: HW
LayerCount: 2
Back
SplineSet
640 896 m 1
 256 896 l 1
 256 1024 l 1
 640 1024 l 1
 640 896 l 1
256 896 m 1
 256 768 l 1
 128 768 l 1
 128 896 l 1
 256 896 l 1
128 768 m 1
 128 640 l 1
 512 640 l 1
 512 512 l 1
 128 512 l 1
 128 384 l 1
 0 384 l 1
 0 768 l 1
 128 768 l 1
128 384 m 1
 256 384 l 1
 256 256 l 1
 128 256 l 1
 128 384 l 1
640 128 m 1
 256 128 l 1
 256 256 l 1
 640 256 l 1
 640 128 l 1
EndSplineSet
Fore
SplineSet
293 128 m 1
 0 421 l 1
 0 731 l 1
 293 1024 l 1
 640 1024 l 1
 640 896 l 1
 347 896 l 1
 128 677 l 1
 128 640 l 1
 512 640 l 1
 512 512 l 1
 128 512 l 1
 128 512 l 1
 128 475 l 1
 347 256 l 1
 640 256 l 1
 640 128 l 1
 293 128 l 1
EndSplineSet
EndChar

StartChar: notelement
Encoding: 133 8713 132
GlifName: notelement
Width: 768
Flags: HW
LayerCount: 2
Back
SplineSet
640 896 m 1
 384 896 l 1
 384 640 l 1
 512 640 l 1
 512 512 l 1
 384 512 l 1
 384 256 l 1
 640 256 l 1
 640 128 l 1
 384 128 l 1
 384 0 l 1
 256 0 l 1
 256 256 l 1
 128 256 l 1
 128 384 l 1
 0 384 l 1
 0 768 l 1
 128 768 l 1
 128 896 l 1
 256 896 l 1
 256 1152 l 1
 384 1152 l 1
 384 1024 l 1
 640 1024 l 1
 640 896 l 1
256 768 m 1
 128 768 l 1
 128 640 l 1
 256 640 l 1
 256 768 l 1
256 512 m 1
 128 512 l 1
 128 384 l 1
 256 384 l 1
 256 512 l 1
EndSplineSet
Fore
SplineSet
128 640 m 1
 256 640 l 1
 256 805 l 1
 128 677 l 1
 128 640 l 1
128 512 m 1
 128 475 l 1
 256 347 l 1
 256 512 l 1
 128 512 l 1
256 0 m 1
 256 165 l 1
 0 421 l 1
 0 731 l 1
 256 987 l 1
 256 1152 l 1
 384 1152 l 1
 384 1024 l 1
 640 1024 l 1
 640 896 l 1
 384 896 l 1
 384 640 l 1
 512 640 l 1
 512 512 l 1
 384 512 l 1
 384 256 l 1
 640 256 l 1
 640 128 l 1
 384 128 l 1
 384 0 l 1
 256 0 l 1
EndSplineSet
EndChar

StartChar: uni2218
Encoding: 134 8728 133
GlifName: uni2218
Width: 768
Flags: HW
LayerCount: 2
Back
SplineSet
128 512 m 1
 128 640 l 1
 256 640 l 1
 256 768 l 1
 384 768 l 1
 384 640 l 1
 256 640 l 1
 256 512 l 1
 128 512 l 1
384 640 m 1
 512 640 l 1
 512 512 l 1
 384 512 l 1
 384 640 l 1
384 512 m 1
 384 384 l 1
 256 384 l 1
 256 512 l 1
 384 512 l 1
EndSplineSet
Fore
SplineSet
256 549 m 1
 293 512 l 1
 347 512 l 1
 384 549 l 1
 384 603 l 1
 347 640 l 1
 293 640 l 1
 256 603 l 1
 256 549 l 1
293 384 m 1
 128 549 l 1
 128 603 l 1
 293 768 l 1
 347 768 l 1
 512 603 l 1
 512 549 l 1
 347 384 l 1
 293 384 l 1
EndSplineSet
EndChar

StartChar: infinity
Encoding: 135 8734 134
GlifName: infinity
Width: 768
Flags: HW
LayerCount: 2
Back
SplineSet
0 512 m 1
 0 640 l 1
 128 640 l 1
 128 768 l 1
 256 768 l 1
 256 640 l 1
 128 640 l 1
 128 512 l 1
 0 512 l 1
512 640 m 1
 384 640 l 1
 384 768 l 1
 512 768 l 1
 512 640 l 1
512 640 m 1
 640 640 l 1
 640 512 l 1
 512 512 l 1
 512 640 l 1
384 640 m 1
 384 512 l 1
 256 512 l 1
 256 640 l 1
 384 640 l 1
512 512 m 1
 512 384 l 1
 384 384 l 1
 384 512 l 1
 512 512 l 1
256 512 m 1
 256 384 l 1
 128 384 l 1
 128 512 l 1
 256 512 l 1
EndSplineSet
Fore
SplineSet
128 549 m 1
 165 512 l 1
 219 512 l 1
 256 549 l 1
 256 603 l 1
 219 640 l 1
 165 640 l 1
 128 603 l 1
 128 549 l 1
384 549 m 1
 421 512 l 1
 475 512 l 1
 512 549 l 1
 512 603 l 1
 475 640 l 1
 421 640 l 1
 384 603 l 1
 384 549 l 1
165 384 m 1
 0 549 l 1
 0 603 l 1
 165 768 l 1
 219 768 l 1
 320 667 l 1
 421 768 l 1
 475 768 l 1
 640 603 l 1
 640 549 l 1
 475 384 l 1
 421 384 l 1
 320 485 l 1
 219 384 l 1
 165 384 l 1
EndSplineSet
EndChar

StartChar: logicaland
Encoding: 136 8743 135
GlifName: logicaland
Width: 768
Flags: HW
LayerCount: 2
Back
SplineSet
0 384 m 1
 0 512 l 1
 128 512 l 1
 128 640 l 1
 256 640 l 1
 256 768 l 1
 384 768 l 1
 384 640 l 1
 256 640 l 1
 256 512 l 1
 128 512 l 1
 128 384 l 1
 0 384 l 1
384 640 m 1
 512 640 l 1
 512 512 l 1
 384 512 l 1
 384 640 l 1
512 512 m 1
 640 512 l 1
 640 384 l 1
 512 384 l 1
 512 512 l 1
EndSplineSet
Fore
SplineSet
91 384 m 5
 0 475 l 5
 320 795 l 5
 640 475 l 5
 549 384 l 5
 320 613 l 5
 91 384 l 5
EndSplineSet
EndChar

StartChar: logicalor
Encoding: 137 8744 136
GlifName: logicalor
Width: 768
Flags: HW
LayerCount: 2
Back
SplineSet
0 640 m 1
 0 768 l 1
 128 768 l 1
 128 640 l 1
 0 640 l 1
512 640 m 1
 512 768 l 1
 640 768 l 1
 640 640 l 1
 512 640 l 1
512 640 m 1
 512 512 l 1
 384 512 l 1
 384 640 l 1
 512 640 l 1
128 640 m 1
 256 640 l 1
 256 512 l 1
 128 512 l 1
 128 640 l 1
384 512 m 1
 384 384 l 1
 256 384 l 1
 256 512 l 1
 384 512 l 1
EndSplineSet
Fore
SplineSet
91 768 m 1
 0 677 l 1
 320 357 l 1
 640 677 l 1
 549 768 l 1
 320 539 l 1
 91 768 l 1
EndSplineSet
EndChar

StartChar: intersection
Encoding: 138 8745 137
GlifName: intersection
Width: 768
Flags: HW
LayerCount: 2
Back
SplineSet
512 1024 m 1
 128 1024 l 1
 128 1152 l 1
 512 1152 l 1
 512 1024 l 1
512 1024 m 1
 640 1024 l 1
 640 0 l 1
 512 0 l 1
 512 1024 l 1
128 1024 m 1
 128 0 l 1
 0 0 l 1
 0 1024 l 1
 128 1024 l 1
EndSplineSet
Fore
SplineSet
0 0 m 5
 0 987 l 5
 165 1152 l 5
 475 1152 l 5
 640 987 l 5
 640 0 l 5
 512 0 l 5
 512 933 l 5
 421 1024 l 5
 219 1024 l 5
 128 933 l 5
 128 0 l 5
 0 0 l 5
EndSplineSet
EndChar

StartChar: union
Encoding: 139 8746 138
GlifName: union
Width: 768
Flags: HW
LayerCount: 2
Back
SplineSet
640 1152 m 1
 640 128 l 1
 512 128 l 1
 512 1152 l 1
 640 1152 l 1
128 1152 m 1
 128 128 l 1
 0 128 l 1
 0 1152 l 1
 128 1152 l 1
512 128 m 1
 512 0 l 1
 128 0 l 1
 128 128 l 1
 512 128 l 1
EndSplineSet
Fore
SplineSet
640 1152 m 5
 640 165 l 5
 475 0 l 5
 165 0 l 5
 0 165 l 5
 0 1152 l 5
 128 1152 l 5
 128 219 l 5
 219 128 l 5
 421 128 l 5
 512 219 l 5
 512 1152 l 5
 640 1152 l 5
EndSplineSet
EndChar

StartChar: notequal
Encoding: 140 8800 139
GlifName: notequal
Width: 768
Flags: HW
LayerCount: 2
Back
SplineSet
0 640 m 1
 0 768 l 1
 256 768 l 1
 256 896 l 1
 384 896 l 1
 384 768 l 1
 640 768 l 1
 640 640 l 1
 384 640 l 1
 384 512 l 1
 640 512 l 1
 640 384 l 1
 384 384 l 1
 384 256 l 1
 256 256 l 1
 256 384 l 1
 0 384 l 1
 0 512 l 1
 256 512 l 1
 256 640 l 1
 0 640 l 1
EndSplineSet
Fore
SplineSet
0 384 m 5
 0 512 l 1
 256 512 l 1
 256 640 l 1
 0 640 l 1
 0 768 l 1
 256 768 l 1
 256 896 l 1
 384 896 l 1
 384 768 l 1
 640 768 l 1
 640 640 l 1
 384 640 l 1
 384 512 l 1
 640 512 l 1
 640 384 l 1
 384 384 l 1
 384 256 l 1
 256 256 l 1
 256 384 l 1
 0 384 l 5
EndSplineSet
EndChar

StartChar: equivalence
Encoding: 141 8801 140
GlifName: equivalence
Width: 768
Flags: HW
LayerCount: 2
Back
SplineSet
0 768 m 1
 0 896 l 1
 640 896 l 1
 640 768 l 1
 0 768 l 1
0 512 m 1
 0 640 l 1
 640 640 l 1
 640 512 l 1
 0 512 l 1
0 256 m 1
 0 384 l 1
 640 384 l 1
 640 256 l 1
 0 256 l 1
EndSplineSet
Fore
SplineSet
0 768 m 5
 0 896 l 5
 640 896 l 5
 640 768 l 5
 0 768 l 5
0 512 m 1
 0 640 l 1
 640 640 l 1
 640 512 l 1
 0 512 l 1
0 256 m 1
 0 384 l 1
 640 384 l 1
 640 256 l 1
 0 256 l 1
EndSplineSet
EndChar

StartChar: lessequal
Encoding: 142 8804 141
GlifName: lessequal
Width: 768
Flags: HW
LayerCount: 2
Back
SplineSet
128 512 m 1
 128 640 l 1
 256 640 l 1
 256 768 l 1
 384 768 l 1
 384 896 l 1
 512 896 l 1
 512 768 l 1
 384 768 l 1
 384 640 l 1
 256 640 l 1
 256 512 l 1
 128 512 l 1
128 0 m 1
 128 128 l 1
 512 128 l 1
 512 0 l 1
 128 0 l 1
256 512 m 1
 384 512 l 1
 384 384 l 1
 256 384 l 1
 256 512 l 1
384 384 m 1
 512 384 l 1
 512 256 l 1
 384 256 l 1
 384 384 l 1
EndSplineSet
Fore
SplineSet
421 256 m 5
 128 549 l 5
 128 603 l 5
 421 896 l 5
 512 805 l 5
 283 576 l 5
 512 347 l 5
 421 256 l 5
128 0 m 5
 128 128 l 5
 512 128 l 5
 512 0 l 5
 128 0 l 5
EndSplineSet
EndChar

StartChar: greaterequal
Encoding: 143 8805 142
GlifName: greaterequal
Width: 768
Flags: HW
LayerCount: 2
Back
SplineSet
128 768 m 1
 128 896 l 1
 256 896 l 1
 256 768 l 1
 128 768 l 1
128 256 m 1
 128 384 l 1
 256 384 l 1
 256 512 l 1
 384 512 l 1
 384 640 l 1
 256 640 l 1
 256 768 l 1
 384 768 l 1
 384 640 l 1
 512 640 l 1
 512 512 l 1
 384 512 l 1
 384 384 l 1
 256 384 l 1
 256 256 l 1
 128 256 l 1
128 0 m 1
 128 128 l 1
 512 128 l 1
 512 0 l 1
 128 0 l 1
EndSplineSet
Fore
SplineSet
219 256 m 1
 512 549 l 1
 512 603 l 1
 219 896 l 1
 128 805 l 1
 357 576 l 1
 128 347 l 1
 219 256 l 1
512 0 m 1
 512 128 l 1
 128 128 l 1
 128 0 l 1
 512 0 l 1
EndSplineSet
EndChar

StartChar: propersubset
Encoding: 144 8834 143
GlifName: propersubset
Width: 768
Flags: HW
LayerCount: 2
Back
SplineSet
640 896 m 1
 256 896 l 1
 256 1024 l 1
 640 1024 l 1
 640 896 l 1
256 896 m 1
 256 768 l 1
 128 768 l 1
 128 896 l 1
 256 896 l 1
128 768 m 1
 128 384 l 1
 0 384 l 1
 0 768 l 1
 128 768 l 1
128 384 m 1
 256 384 l 1
 256 256 l 1
 128 256 l 1
 128 384 l 1
640 128 m 1
 256 128 l 1
 256 256 l 1
 640 256 l 1
 640 128 l 1
EndSplineSet
Fore
SplineSet
293 128 m 1
 0 421 l 1
 0 731 l 1
 293 1024 l 1
 640 1024 l 1
 640 896 l 1
 347 896 l 1
 128 677 l 1
 128 475 l 1
 347 256 l 1
 640 256 l 1
 640 128 l 1
 293 128 l 1
EndSplineSet
EndChar

StartChar: reflexsubset
Encoding: 145 8838 144
GlifName: reflexsubset
Width: 768
Flags: HW
LayerCount: 2
Back
SplineSet
128 -128 m 1
 128 0 l 1
 640 0 l 1
 640 -128 l 1
 128 -128 l 1
640 896 m 1
 256 896 l 1
 256 1024 l 1
 640 1024 l 1
 640 896 l 1
256 896 m 1
 256 768 l 1
 128 768 l 1
 128 896 l 1
 256 896 l 1
128 768 m 1
 128 384 l 1
 0 384 l 1
 0 768 l 1
 128 768 l 1
128 384 m 1
 256 384 l 1
 256 256 l 1
 128 256 l 1
 128 384 l 1
640 128 m 1
 256 128 l 1
 256 256 l 1
 640 256 l 1
 640 128 l 1
EndSplineSet
Fore
SplineSet
128 -128 m 1
 128 0 l 1
 640 0 l 1
 640 -128 l 1
 128 -128 l 1
293 128 m 1
 0 421 l 1
 0 731 l 1
 293 1024 l 1
 640 1024 l 1
 640 896 l 1
 347 896 l 1
 128 677 l 1
 128 475 l 1
 347 256 l 1
 640 256 l 1
 640 128 l 1
 293 128 l 1
EndSplineSet
EndChar

StartChar: uni22C2
Encoding: 146 8898 145
GlifName: uni22C_2
Width: 768
Flags: HW
LayerCount: 2
Back
SplineSet
512 1024 m 1
 128 1024 l 1
 128 1152 l 1
 512 1152 l 1
 512 1024 l 1
512 1024 m 1
 640 1024 l 1
 640 -256 l 1
 512 -256 l 1
 512 1024 l 1
128 1024 m 1
 128 -256 l 1
 0 -256 l 1
 0 1024 l 1
 128 1024 l 1
EndSplineSet
Fore
SplineSet
0 -256 m 1
 0 987 l 1
 165 1152 l 1
 475 1152 l 1
 640 987 l 1
 640 -256 l 1
 512 -256 l 1
 512 933 l 1
 421 1024 l 1
 219 1024 l 1
 128 933 l 1
 128 -256 l 1
 0 -256 l 1
EndSplineSet
EndChar

StartChar: uni22C3
Encoding: 147 8899 146
GlifName: uni22C_3
Width: 768
Flags: HW
LayerCount: 2
Back
SplineSet
640 1152 m 1
 640 -128 l 1
 512 -128 l 1
 512 1152 l 1
 640 1152 l 1
128 1152 m 1
 128 -128 l 1
 0 -128 l 1
 0 1152 l 1
 128 1152 l 1
512 -128 m 1
 512 -256 l 1
 128 -256 l 1
 128 -128 l 1
 512 -128 l 1
EndSplineSet
Fore
SplineSet
640 1152 m 1
 640 -91 l 1
 475 -256 l 1
 165 -256 l 1
 0 -91 l 1
 0 1152 l 1
 128 1152 l 1
 128 -37 l 1
 219 -128 l 1
 421 -128 l 1
 512 -37 l 1
 512 1152 l 1
 640 1152 l 1
EndSplineSet
EndChar

StartChar: uni27E8
Encoding: 148 10216 147
GlifName: uni27E_8
Width: 768
Flags: HW
LayerCount: 2
Back
SplineSet
512 1024 m 1
 512 1152 l 1
 640 1152 l 1
 640 1024 l 1
 512 1024 l 1
512 1024 m 1
 512 896 l 1
 384 896 l 1
 384 1024 l 1
 512 1024 l 1
384 896 m 1
 384 768 l 1
 256 768 l 1
 256 896 l 1
 384 896 l 1
256 768 m 1
 256 640 l 1
 128 640 l 1
 128 768 l 1
 256 768 l 1
128 640 m 1
 128 256 l 1
 0 256 l 1
 0 640 l 1
 128 640 l 1
128 256 m 1
 256 256 l 1
 256 128 l 1
 128 128 l 1
 128 256 l 1
256 128 m 1
 384 128 l 1
 384 0 l 1
 256 0 l 1
 256 128 l 1
384 0 m 1
 512 0 l 1
 512 -128 l 1
 384 -128 l 1
 384 0 l 1
512 -128 m 1
 640 -128 l 1
 640 -256 l 1
 512 -256 l 1
 512 -128 l 1
EndSplineSet
Fore
SplineSet
549 -256 m 5
 0 293 l 5
 0 603 l 5
 549 1152 l 5
 640 1061 l 5
 128 549 l 5
 128 347 l 5
 640 -165 l 5
 549 -256 l 5
EndSplineSet
EndChar

StartChar: uni27E9
Encoding: 149 10217 148
GlifName: uni27E_9
Width: 768
Flags: HW
LayerCount: 2
Back
SplineSet
0 1024 m 1
 0 1152 l 1
 128 1152 l 1
 128 1024 l 1
 0 1024 l 1
0 -256 m 1
 0 -128 l 1
 128 -128 l 1
 128 0 l 1
 256 0 l 1
 256 128 l 1
 384 128 l 1
 384 256 l 1
 512 256 l 1
 512 640 l 1
 384 640 l 1
 384 768 l 1
 256 768 l 1
 256 896 l 1
 128 896 l 1
 128 1024 l 1
 256 1024 l 1
 256 896 l 1
 384 896 l 1
 384 768 l 1
 512 768 l 1
 512 640 l 1
 640 640 l 1
 640 256 l 1
 512 256 l 1
 512 128 l 1
 384 128 l 1
 384 0 l 1
 256 0 l 1
 256 -128 l 1
 128 -128 l 1
 128 -256 l 1
 0 -256 l 1
EndSplineSet
Fore
SplineSet
91 -256 m 1
 640 293 l 1
 640 603 l 1
 91 1152 l 1
 0 1061 l 1
 512 549 l 1
 512 347 l 1
 0 -165 l 1
 91 -256 l 1
EndSplineSet
EndChar

